<?xml version="1.0" standalone="no"?>
<!DOCTYPE svg PUBLIC "-//W3C//DTD SVG 20010904//EN"
 "http://www.w3.org/TR/2001/REC-SVG-20010904/DTD/svg10.dtd">
<svg version="1.0" xmlns="http://www.w3.org/2000/svg"
 width="700.000000pt" height="700.000000pt" viewBox="0 0 700.000000 700.000000"
 preserveAspectRatio="xMidYMid meet">
<metadata>
Created by potrace 1.14, written by Peter Selinger 2001-2017
</metadata>
<g transform="translate(0.000000,700.000000) scale(0.100000,-0.100000)"
fill="#000000" stroke="none">
<path d="M3498 6965 c-1 -1 -75 -5 -163 -9 -88 -3 -169 -8 -180 -10 -11 -2
-51 -7 -90 -10 -38 -4 -77 -9 -85 -11 -8 -2 -37 -6 -65 -10 -175 -22 -448
-108 -680 -214 -22 -10 -87 -40 -145 -67 -365 -166 -650 -360 -791 -537 -54
-67 -87 -192 -114 -422 -3 -27 -10 -81 -15 -120 -5 -38 -12 -95 -15 -125 -5
-50 -9 -83 -20 -160 -2 -14 -7 -50 -10 -80 -3 -30 -8 -62 -10 -70 -2 -8 -7
-55 -10 -104 -4 -50 -8 -97 -10 -105 -1 -9 -6 -63 -9 -121 -4 -58 -9 -116 -11
-130 -9 -54 -18 -352 -20 -675 -1 -187 -6 -410 -11 -495 -10 -195 -11 -598 -1
-710 21 -239 98 -652 272 -1460 24 -113 46 -216 49 -230 2 -14 12 -58 20 -97
9 -40 18 -87 21 -105 22 -131 28 -149 68 -193 86 -99 344 -277 683 -473 114
-66 292 -152 314 -152 20 0 43 13 170 95 159 103 298 152 462 163 123 8 618
10 763 3 185 -9 327 -60 523 -188 117 -76 126 -79 170 -64 53 19 271 136 427
229 77 46 348 222 355 231 3 3 30 25 60 47 72 54 134 113 149 142 7 12 25 89
41 170 16 81 50 244 75 362 82 375 201 956 219 1065 3 17 12 73 21 125 18 102
19 110 34 240 21 183 27 404 17 635 -11 230 -18 505 -22 830 -2 204 -6 386 -8
405 -2 19 -7 82 -10 140 -4 58 -9 121 -11 140 -2 19 -6 67 -10 105 -8 91 -13
136 -31 275 -18 139 -22 170 -29 235 -3 28 -8 66 -10 85 -3 19 -9 74 -15 122
-16 133 -48 304 -67 351 -87 225 -599 551 -1243 792 -190 71 -347 107 -571
130 -30 3 -63 8 -74 10 -11 2 -90 7 -175 10 -85 4 -160 8 -167 10 -6 2 -13 2
-15 0z"/>
</g>
</svg>
