<?xml version="1.0" standalone="no"?>
<!DOCTYPE svg PUBLIC "-//W3C//DTD SVG 20010904//EN"
 "http://www.w3.org/TR/2001/REC-SVG-20010904/DTD/svg10.dtd">
<svg version="1.0" xmlns="http://www.w3.org/2000/svg"
 width="5760.000000pt" height="5760.000000pt" viewBox="0 0 5760.000000 5760.000000"
 preserveAspectRatio="xMidYMid meet">
<metadata>
Created by potrace 1.14, written by Peter Selinger 2001-2017
</metadata>
<g transform="translate(0.000000,5760.000000) scale(0.100000,-0.100000)"
fill="#000000" stroke="none">
<path d="M28328 57395 c-2 -2 -68 -6 -148 -9 -80 -4 -170 -8 -200 -11 -30 -2
-89 -7 -130 -10 -178 -13 -207 -15 -240 -20 -20 -3 -62 -8 -95 -10 -114 -10
-181 -17 -345 -40 -14 -2 -45 -6 -70 -9 -25 -3 -55 -8 -68 -11 -13 -2 -58 -9
-100 -16 -42 -6 -86 -12 -97 -14 -740 -131 -1269 -286 -1885 -552 -52 -23
-345 -169 -409 -205 -82 -46 -249 -147 -306 -185 -27 -18 -58 -39 -69 -46
-174 -114 -379 -284 -560 -463 -499 -495 -908 -1228 -1222 -2194 -52 -158
-173 -562 -190 -630 -2 -8 -17 -64 -34 -125 -16 -60 -32 -119 -34 -130 -3 -11
-32 -126 -65 -255 -32 -129 -62 -252 -65 -274 -4 -21 -8 -41 -10 -45 -2 -3 -7
-24 -10 -46 -4 -22 -15 -85 -25 -140 -11 -55 -22 -125 -26 -155 -3 -30 -8 -62
-10 -70 -5 -17 -12 -73 -20 -145 -3 -27 -7 -70 -10 -95 -8 -69 -13 -126 -20
-235 -4 -55 -9 -118 -11 -140 -21 -254 -21 -1020 1 -1425 2 -36 6 -128 10
-205 3 -77 8 -178 10 -225 3 -47 7 -128 10 -180 6 -128 15 -301 20 -380 4 -62
13 -264 20 -435 4 -104 14 -617 21 -1120 3 -220 7 -436 9 -480 11 -265 17
-387 20 -445 2 -36 6 -114 10 -175 3 -60 8 -130 10 -155 2 -25 7 -83 10 -130
4 -47 8 -101 10 -120 2 -19 6 -71 10 -115 3 -44 8 -97 10 -117 3 -21 7 -55 9
-75 3 -21 8 -72 11 -113 4 -41 8 -82 10 -90 3 -8 7 -41 10 -73 3 -32 7 -72 10
-90 2 -18 7 -54 10 -82 8 -64 14 -112 20 -150 3 -16 7 -48 10 -70 9 -61 34
-226 40 -257 3 -16 7 -40 9 -55 6 -46 47 -275 56 -318 5 -22 11 -56 15 -75 6
-39 36 -181 67 -315 11 -49 22 -99 24 -110 2 -11 24 -101 49 -200 25 -99 48
-187 50 -195 17 -67 101 -348 120 -402 20 -55 105 -249 135 -307 4 -9 24 -47
43 -86 79 -158 156 -303 240 -450 22 -38 51 -90 65 -115 54 -96 239 -400 310
-510 132 -203 344 -517 375 -555 24 -30 167 -231 167 -236 0 -3 -6 -6 -12 -6
-30 -1 -100 -16 -208 -43 -63 -17 -124 -32 -135 -34 -100 -21 -489 -166 -701
-261 -301 -136 -853 -438 -1046 -572 -26 -18 -50 -33 -53 -33 -10 0 -554 -367
-590 -397 -5 -5 -32 -24 -60 -43 -27 -19 -101 -71 -162 -117 -62 -46 -115 -83
-118 -83 -3 0 -19 15 -36 34 -39 45 -225 120 -372 151 -10 2 -26 6 -35 9 -9 3
-33 7 -52 10 -19 3 -44 7 -55 10 -139 28 -537 28 -706 1 -13 -2 -42 -6 -64 -9
-70 -9 -207 -35 -300 -56 -49 -11 -101 -23 -115 -26 -131 -28 -484 -146 -569
-190 -14 -8 -31 -14 -37 -14 -5 0 -16 34 -23 76 -17 104 -43 178 -111 320 -75
158 -139 251 -253 370 -203 213 -556 428 -743 453 -236 32 -494 34 -674 5 -45
-7 -228 -52 -260 -64 -14 -5 -79 -25 -145 -45 -173 -52 -194 -61 -308 -122
-236 -128 -447 -267 -692 -457 -71 -55 -132 -103 -135 -106 -3 -3 -34 -30 -70
-60 -36 -30 -70 -59 -76 -65 -6 -5 -46 -41 -89 -80 -187 -167 -448 -425 -777
-766 -97 -101 -203 -211 -234 -244 -136 -141 -406 -525 -609 -866 -117 -198
-329 -608 -419 -814 -26 -60 -57 -130 -68 -155 -11 -25 -24 -56 -30 -70 -6
-14 -16 -38 -23 -55 -7 -16 -18 -46 -25 -65 -7 -19 -18 -48 -26 -65 -51 -113
-247 -712 -269 -825 -2 -8 -14 -61 -29 -116 -14 -56 -27 -112 -30 -125 -2 -13
-14 -69 -26 -124 -11 -55 -23 -116 -25 -135 -3 -19 -7 -46 -10 -60 -2 -13 -7
-42 -10 -65 -4 -22 -8 -51 -10 -65 -2 -14 -6 -50 -10 -80 -4 -30 -8 -66 -10
-80 -15 -105 -22 -454 -11 -545 3 -22 9 -78 15 -125 6 -47 13 -107 16 -135 23
-189 110 -411 269 -679 22 -37 200 -288 221 -310 6 -6 32 -38 60 -71 27 -33
52 -62 55 -65 3 -3 16 -18 28 -33 12 -16 54 -65 94 -109 40 -45 81 -90 91
-102 10 -12 37 -41 60 -66 85 -92 147 -169 147 -182 0 -7 -24 -76 -54 -153
-89 -233 -216 -565 -253 -660 -19 -49 -60 -155 -90 -235 -31 -80 -64 -167 -75
-195 -11 -27 -28 -75 -39 -105 -10 -30 -23 -64 -29 -75 -5 -11 -48 -121 -95
-245 -48 -124 -88 -226 -90 -228 -2 -2 -23 5 -48 16 -164 73 -372 74 -544 4
-234 -95 -515 -382 -657 -671 -114 -231 -258 -622 -291 -789 -2 -9 -12 -53
-23 -97 -17 -67 -32 -138 -66 -320 -2 -11 -7 -42 -10 -68 -4 -27 -9 -56 -10
-65 -2 -10 -7 -44 -11 -77 -4 -32 -8 -66 -10 -75 -1 -8 -6 -46 -9 -85 -4 -38
-9 -88 -11 -110 -16 -150 -30 -358 -40 -585 -3 -63 -7 -146 -10 -185 -12 -143
-14 -175 -31 -346 -3 -37 -7 -87 -9 -110 -2 -24 -6 -69 -9 -99 -6 -55 -12
-119 -21 -240 -3 -36 -7 -81 -10 -100 -3 -19 -7 -64 -10 -100 -8 -103 -16
-183 -20 -210 -2 -14 -6 -65 -10 -115 -3 -49 -8 -103 -10 -120 -2 -16 -7 -66
-11 -110 -3 -44 -8 -93 -9 -110 -2 -16 -6 -64 -9 -105 -3 -41 -8 -100 -11
-130 -3 -30 -7 -86 -10 -125 -3 -38 -8 -92 -10 -120 -5 -57 -13 -156 -20 -265
-3 -41 -7 -106 -10 -145 -16 -217 -30 -497 -41 -790 -13 -348 -7 -1113 11
-1325 3 -30 7 -95 10 -145 3 -49 7 -108 9 -130 3 -22 7 -71 11 -110 3 -38 7
-83 9 -100 2 -16 7 -64 11 -105 4 -41 9 -82 10 -91 2 -9 6 -40 10 -70 33 -285
103 -665 181 -984 14 -55 26 -108 29 -118 56 -237 260 -858 376 -1147 200
-498 407 -854 644 -1109 150 -162 329 -319 413 -362 15 -8 29 -17 32 -20 3 -3
40 -23 82 -44 76 -39 77 -40 98 -100 56 -156 227 -424 399 -625 232 -272 621
-546 926 -654 158 -55 315 -89 480 -103 101 -9 350 -8 435 1 36 4 84 9 107 11
67 7 230 34 333 56 52 11 105 22 118 25 58 12 267 80 371 121 414 164 750 386
1046 693 98 102 124 134 236 290 40 55 129 209 129 223 0 7 4 17 8 23 13 14
32 88 37 144 3 35 -1 67 -14 100 l-19 50 41 57 c23 32 45 63 50 68 4 6 67 91
140 191 73 99 166 226 207 282 57 77 82 122 103 185 71 208 98 356 100 553 2
186 -23 345 -83 524 -49 147 -105 245 -165 288 -27 20 -52 39 -55 42 -3 3 -34
28 -70 55 -36 27 -70 54 -77 60 -17 14 -25 20 -143 109 -58 44 -107 82 -110
86 -9 12 -90 40 -115 40 -20 0 -25 5 -26 28 -1 15 -2 32 -3 37 -1 6 -6 42 -10
80 -5 39 -10 77 -11 85 -2 9 -6 43 -10 75 -4 33 -9 67 -10 75 -2 8 -6 44 -10
80 -4 36 -9 72 -10 80 -1 8 -6 44 -10 80 -4 36 -9 73 -11 84 -2 10 -6 44 -9
75 -3 31 -8 67 -10 81 -3 14 -7 48 -11 75 -3 28 -7 61 -10 75 -2 14 -7 52 -10
85 -4 33 -8 63 -10 66 -2 3 27 41 64 85 83 98 133 166 195 264 57 90 147 274
172 350 10 30 22 61 28 68 5 6 7 12 4 12 -4 0 1 19 9 42 37 105 81 307 118
538 16 100 18 115 36 246 6 44 12 89 14 100 2 10 7 46 10 79 9 74 12 100 25
195 11 79 21 161 26 221 2 20 6 63 9 95 11 119 23 296 32 479 7 149 7 770 0
980 -8 222 -15 397 -21 516 -3 53 -7 150 -10 214 -3 65 -8 122 -11 126 -3 5
-14 9 -25 9 -10 0 -19 3 -19 6 0 4 64 81 196 234 12 14 55 63 94 110 40 47 84
99 99 115 14 17 60 71 101 120 41 50 77 92 80 95 3 3 50 59 104 125 55 66 123
147 150 181 28 33 67 80 86 104 19 24 64 80 100 124 245 303 517 672 645 876
l48 76 95 -191 c52 -104 105 -206 117 -225 12 -19 38 -64 57 -100 53 -98 236
-401 355 -589 346 -543 676 -1002 1038 -1440 223 -271 551 -580 754 -711 23
-16 23 -17 12 -100 -6 -47 -13 -96 -15 -110 -4 -23 -15 -121 -22 -195 -1 -16
-5 -70 -9 -120 -4 -49 -8 -102 -10 -117 -17 -142 -20 -557 -12 -1672 l2 -279
-30 -4 c-77 -10 -135 -35 -163 -69 -81 -98 -176 -371 -206 -589 -3 -22 -7 -56
-10 -75 -28 -186 -37 -539 -23 -910 4 -102 9 -201 11 -220 2 -19 7 -78 11
-130 4 -52 8 -97 10 -100 1 -3 5 -34 9 -70 12 -137 62 -475 91 -620 32 -164
48 -237 54 -254 6 -15 -4 -34 -40 -80 -151 -186 -433 -613 -568 -856 -108
-195 -232 -463 -286 -615 -10 -27 -22 -54 -25 -58 -4 -5 -52 1 -106 13 -109
24 -276 33 -370 19 -352 -53 -615 -326 -798 -829 -15 -41 -34 -91 -41 -110 -8
-19 -25 -75 -39 -125 -15 -49 -30 -103 -35 -120 -25 -82 -100 -395 -117 -485
-3 -14 -16 -77 -30 -140 -34 -153 -32 -143 -38 -184 -3 -19 -11 -57 -17 -83
-16 -73 -18 -82 -34 -158 -22 -109 -23 -111 -49 -198 -24 -79 -84 -296 -91
-327 -2 -8 -20 -80 -40 -160 -20 -79 -38 -151 -40 -160 -2 -8 -17 -76 -33
-150 -55 -247 -113 -543 -177 -905 -3 -16 -7 -41 -10 -55 -5 -30 -112 -659
-120 -714 -4 -21 -9 -48 -11 -60 -2 -11 -16 -88 -30 -171 -27 -158 -40 -193
-112 -315 -157 -261 -369 -461 -866 -818 -128 -91 -227 -170 -237 -187 -50
-84 -117 -368 -155 -658 -2 -15 -6 -47 -9 -70 -3 -23 -8 -58 -10 -77 -4 -30
-13 -101 -30 -240 -3 -19 -7 -60 -10 -90 -3 -30 -8 -66 -10 -80 -2 -14 -6 -50
-10 -80 -3 -30 -8 -71 -10 -90 -3 -19 -7 -60 -10 -90 -12 -127 -17 -161 -40
-276 -40 -195 -112 -416 -203 -619 -54 -121 -188 -375 -223 -427 -11 -14 -19
-29 -19 -32 0 -10 -140 -227 -265 -411 -478 -706 -846 -1511 -1040 -2275 0 -3
-5 -23 -10 -45 -4 -22 -9 -44 -11 -50 -3 -11 -33 -174 -39 -215 -2 -14 -7 -56
-10 -93 l-7 -68 26 7 c44 11 31 -15 -70 -141 -78 -99 -187 -254 -251 -360 -40
-65 -125 -244 -156 -325 -45 -120 -64 -187 -87 -308 -22 -116 -25 -130 -44
-196 -8 -28 -17 -62 -20 -76 -19 -85 -117 -562 -122 -595 -3 -22 -7 -42 -9
-45 -2 -4 -6 -28 -10 -54 -3 -26 -10 -67 -15 -92 -6 -24 -12 -59 -14 -77 -3
-18 -12 -71 -20 -117 -9 -47 -18 -103 -22 -125 -3 -22 -14 -89 -24 -150 -11
-60 -22 -132 -25 -160 -4 -27 -8 -57 -10 -65 -3 -8 -7 -38 -10 -66 -3 -28 -8
-61 -10 -74 -2 -13 -7 -44 -10 -69 -3 -25 -7 -62 -10 -81 -11 -76 -27 -333
-30 -470 -2 -151 11 -269 41 -350 64 -172 338 -406 731 -624 586 -326 947
-477 1244 -520 103 -15 145 -19 309 -31 47 -4 105 -8 130 -10 25 -2 101 -7
170 -10 69 -3 159 -8 200 -10 754 -41 2613 -51 3850 -20 107 3 305 7 440 10
487 11 584 16 645 31 172 44 736 227 1030 334 77 28 145 52 150 54 12 4 43 15
70 26 11 4 81 31 155 60 154 59 337 138 425 183 33 17 62 32 65 32 3 1 12 4
20 7 8 3 35 11 60 17 44 10 65 14 240 47 277 51 473 142 610 284 56 58 71 82
107 171 54 133 69 186 98 339 21 112 23 149 20 350 -2 124 -6 261 -9 305 -5
74 -7 120 -21 375 -3 52 -8 131 -10 175 -3 44 -7 121 -10 170 -2 50 -7 131
-10 180 -3 50 -8 131 -10 180 -8 150 -22 283 -50 470 -18 122 -64 337 -95 449
l-28 99 39 57 c77 113 141 278 164 420 24 149 24 332 -1 655 -8 109 -9 115
-89 390 -144 491 -139 470 -132 615 8 148 39 291 94 425 15 38 190 394 551
1123 l159 322 -2 313 c-2 171 -6 339 -9 372 -11 105 -22 189 -32 245 -2 14 -7
41 -10 60 -29 181 -118 443 -217 633 -23 45 -43 85 -45 89 -2 3 14 24 34 45
268 275 556 741 833 1348 138 302 129 280 211 480 33 83 65 159 70 170 29 62
146 372 229 605 29 80 60 165 70 190 31 77 372 1119 386 1180 2 8 26 89 53
180 27 91 52 174 55 185 3 11 17 58 31 105 46 157 68 235 72 255 2 11 8 31 13
45 6 14 22 70 36 125 14 55 32 116 40 136 8 20 11 39 8 43 -8 8 4 7 52 -4 146
-33 294 -38 800 -25 171 5 429 8 575 8 146 0 333 -1 415 0 523 1 723 -1 990
-8 462 -12 634 -7 755 21 63 15 70 15 70 -3 0 -9 5 -30 10 -47 9 -26 78 -269
125 -441 22 -81 111 -383 138 -470 14 -44 42 -134 62 -200 189 -618 432 -1321
635 -1830 57 -146 141 -347 172 -415 11 -24 24 -55 29 -69 26 -67 164 -358
254 -536 117 -230 228 -425 326 -574 38 -57 69 -108 69 -113 0 -4 4 -8 8 -8 4
0 15 -12 24 -27 9 -16 27 -41 40 -57 101 -127 153 -188 197 -234 l51 -53 -27
-57 c-15 -31 -34 -68 -43 -82 -32 -49 -141 -342 -154 -412 -2 -13 -11 -50 -19
-83 -16 -59 -20 -81 -32 -159 -4 -21 -8 -47 -10 -58 -2 -11 -7 -49 -10 -86 -3
-37 -9 -87 -11 -112 -3 -25 -7 -186 -8 -358 l-3 -314 202 -406 c207 -418 490
-991 505 -1027 21 -47 63 -186 77 -255 9 -41 17 -133 18 -205 3 -127 2 -133
-40 -280 -177 -611 -169 -582 -179 -710 -34 -418 -22 -629 45 -826 26 -76 89
-203 128 -255 l28 -37 -33 -125 c-29 -107 -44 -175 -69 -302 -7 -35 -26 -149
-30 -185 -2 -16 -6 -46 -9 -65 -15 -99 -28 -261 -41 -500 -3 -58 -7 -143 -10
-190 -6 -87 -10 -163 -20 -355 -3 -60 -8 -139 -10 -175 -17 -261 -20 -339 -20
-530 0 -255 5 -301 54 -497 11 -44 55 -157 92 -240 28 -62 145 -175 239 -231
101 -60 235 -111 360 -137 78 -16 231 -47 253 -50 15 -3 40 -7 55 -10 43 -7
97 -28 192 -73 101 -48 207 -95 285 -127 318 -130 907 -336 1315 -460 271 -82
187 -73 855 -90 1311 -33 2795 -37 3750 -10 243 7 490 16 555 20 36 2 112 7
170 10 226 12 475 30 554 40 195 25 449 101 661 198 298 137 736 374 925 500
226 152 404 330 453 454 48 124 55 329 22 733 -3 36 -7 76 -10 90 -2 14 -6 48
-10 75 -3 28 -8 59 -10 70 -2 11 -7 43 -10 70 -3 28 -15 104 -25 170 -11 66
-22 138 -25 160 -3 23 -7 52 -10 65 -3 14 -16 93 -30 175 -14 83 -27 161 -30
175 -3 14 -8 41 -10 60 -3 19 -8 46 -11 60 -3 14 -8 36 -10 50 -7 39 -66 343
-70 362 -7 32 -14 62 -25 118 -6 30 -28 123 -49 205 -20 83 -40 168 -44 190
-12 80 -17 102 -43 195 -78 279 -247 581 -496 884 -64 77 -72 102 -31 92 l26
-7 -7 68 c-31 316 -151 750 -335 1213 -37 94 -55 137 -121 285 -181 411 -381
770 -648 1170 -171 255 -287 440 -360 575 -59 108 -164 327 -186 385 -10 28
-22 55 -26 60 -12 17 -96 275 -118 360 -32 129 -53 256 -66 395 -3 36 -8 76
-10 90 -3 22 -10 76 -20 170 -1 14 -5 48 -9 75 -3 28 -13 106 -21 175 -8 69
-17 136 -19 150 -2 14 -7 50 -11 80 -8 71 -14 112 -25 180 -5 30 -12 71 -15
90 -38 235 -83 401 -129 469 -13 20 -49 54 -80 76 -31 22 -101 72 -156 112
-54 39 -107 76 -118 82 -11 6 -26 17 -34 23 -7 7 -40 33 -73 57 -424 313 -694
645 -740 911 -9 52 -18 109 -21 125 -3 17 -9 50 -14 75 -5 25 -12 63 -15 85
-3 22 -15 94 -26 160 -11 66 -22 131 -24 145 -2 14 -11 66 -20 115 -16 90 -21
120 -29 173 -3 15 -7 43 -11 62 -4 19 -8 46 -10 60 -4 24 -30 170 -40 220 -2
14 -7 36 -10 50 -2 14 -7 45 -11 70 -3 24 -7 48 -10 51 -2 4 -6 24 -10 45 -3
22 -15 84 -26 139 -11 55 -21 111 -24 125 -2 14 -9 45 -14 70 -6 25 -12 54
-14 65 -3 11 -21 92 -41 180 -20 88 -38 170 -41 182 -2 12 -9 34 -14 48 -5 14
-7 25 -5 25 2 0 0 11 -5 25 -5 14 -12 36 -14 48 -8 46 -88 339 -116 429 -15
45 -80 342 -104 468 -2 14 -12 58 -20 97 -9 40 -18 86 -21 102 -3 17 -9 41
-14 54 -6 14 -8 27 -5 30 2 2 0 15 -5 29 -5 14 -12 40 -15 59 -24 154 -161
625 -236 814 -163 412 -399 670 -680 745 -75 20 -81 21 -195 24 -106 3 -224
-9 -315 -34 -52 -14 -65 -9 -74 27 -4 15 -13 42 -20 58 -7 17 -28 66 -46 110
-30 72 -197 418 -220 455 -5 8 -52 87 -104 175 -112 191 -290 457 -422 632
l-96 127 12 56 c6 30 13 66 16 80 3 14 7 33 10 42 3 10 7 28 9 40 44 253 48
272 59 346 9 53 26 178 31 222 3 25 8 65 11 89 3 25 8 63 9 85 2 23 6 68 9
101 34 326 40 988 11 1180 -2 17 -7 48 -9 70 -17 152 -64 358 -104 460 -30 76
-75 169 -88 183 -7 6 -15 20 -18 30 -10 30 -59 52 -179 77 l-29 6 8 397 c13
694 9 1277 -11 1542 -11 144 -17 218 -20 250 -19 181 -27 245 -30 250 -1 3 -6
34 -9 70 l-7 66 78 54 c43 30 85 60 93 66 107 86 167 140 290 264 154 155 155
155 299 325 129 152 130 153 186 225 27 36 52 67 55 70 10 8 326 436 370 500
8 12 22 32 31 44 47 61 341 507 450 681 103 164 245 399 302 500 6 11 37 67
70 125 32 58 93 175 136 260 l77 155 84 -129 c91 -139 111 -166 270 -381 98
-133 268 -354 280 -365 3 -3 41 -50 84 -105 129 -162 474 -575 722 -865 191
-222 264 -309 264 -314 0 -3 -9 -6 -19 -6 -11 0 -22 -3 -24 -7 -7 -11 -16
-164 -32 -554 -26 -616 -23 -1247 10 -1639 3 -36 7 -96 11 -135 3 -38 7 -83 9
-100 2 -16 6 -50 9 -75 14 -114 37 -297 41 -320 2 -14 6 -47 10 -75 3 -27 13
-97 21 -155 8 -58 17 -121 20 -140 3 -19 7 -46 9 -60 3 -14 7 -41 10 -60 3
-19 10 -60 16 -90 6 -30 13 -68 15 -85 8 -46 62 -259 80 -318 68 -212 198
-464 318 -614 33 -42 131 -159 143 -171 7 -8 11 -17 9 -20 -2 -4 -7 -32 -10
-62 -3 -30 -8 -71 -11 -90 -8 -62 -16 -124 -21 -166 -2 -23 -7 -53 -9 -65 -3
-13 -8 -53 -11 -89 -3 -36 -7 -72 -9 -80 -2 -8 -11 -71 -20 -140 -8 -69 -17
-138 -19 -155 -2 -16 -7 -52 -10 -80 -4 -27 -9 -66 -11 -85 -3 -19 -8 -57 -11
-85 -8 -62 -10 -65 -38 -65 -39 0 -120 -51 -282 -175 -86 -66 -166 -128 -178
-138 -11 -11 -49 -40 -84 -65 -53 -39 -71 -61 -107 -127 -99 -184 -158 -434
-158 -675 0 -156 23 -341 53 -430 5 -14 23 -70 40 -125 28 -88 42 -114 116
-215 46 -63 91 -124 99 -135 15 -22 79 -109 233 -317 l101 -137 -19 -43 c-56
-127 31 -342 253 -628 103 -131 330 -350 487 -467 324 -242 732 -430 1121
-517 111 -24 126 -27 199 -40 19 -3 49 -8 65 -11 17 -3 48 -8 70 -11 22 -3 54
-7 70 -9 138 -19 390 -25 545 -13 143 12 411 73 515 118 472 205 837 514 1114
945 28 44 55 85 61 92 5 7 10 16 10 21 0 5 15 35 34 66 19 32 46 90 61 130 25
67 30 75 68 92 221 100 509 354 712 629 296 402 498 856 780 1755 43 135 142
516 159 609 3 14 16 78 30 141 13 63 27 131 30 150 3 19 8 45 10 56 2 12 7 39
10 60 4 22 8 46 11 54 2 8 7 35 10 60 3 25 7 54 9 65 2 11 7 44 11 74 3 30 8
61 10 70 1 9 6 41 9 71 4 30 9 71 11 90 4 33 7 55 19 170 6 59 24 264 32 365
32 435 36 1138 9 1715 -10 206 -20 386 -29 530 -4 52 -9 127 -12 165 -2 39 -6
93 -9 120 -7 73 -15 180 -20 260 -3 39 -7 90 -10 115 -2 25 -7 81 -11 125 -4
44 -8 94 -10 110 -1 17 -5 68 -9 115 -3 47 -8 96 -10 110 -2 14 -6 61 -10 105
-3 44 -8 98 -10 120 -3 22 -7 67 -10 100 -3 33 -7 83 -10 110 -14 148 -19 203
-30 330 -4 39 -8 81 -10 95 -2 14 -7 63 -10 110 -12 142 -13 155 -19 216 -4
32 -8 84 -11 114 -2 30 -6 87 -9 125 -3 39 -8 122 -11 185 -6 136 -14 271 -20
355 -9 126 -16 212 -20 253 -11 96 -16 140 -25 207 -5 39 -12 90 -15 115 -75
585 -311 1274 -541 1580 -207 274 -458 457 -669 486 -150 21 -269 4 -426 -60
-12 -6 -24 16 -58 106 -23 62 -46 122 -51 133 -9 18 -227 587 -285 740 -12 33
-42 110 -65 170 -23 61 -53 137 -65 170 -13 33 -53 139 -89 235 -36 96 -70
184 -75 195 -25 56 -51 129 -51 142 0 15 51 79 141 177 91 100 102 112 152
170 29 33 63 71 77 86 24 26 40 46 148 179 76 94 72 89 127 166 163 227 280
453 339 657 23 80 46 213 61 348 3 30 8 73 10 95 6 53 6 345 0 415 -3 30 -7
85 -10 121 -3 37 -7 76 -10 87 -2 11 -6 49 -10 83 -4 35 -8 66 -10 69 -1 3 -6
28 -9 55 -4 28 -9 59 -11 70 -3 11 -7 31 -9 45 -29 161 -101 458 -151 627 -42
137 -132 419 -145 448 -10 23 -23 58 -24 65 -9 38 -143 365 -218 535 -75 169
-276 571 -321 643 -15 23 -25 42 -22 42 3 0 -5 15 -19 33 -15 19 -26 36 -26
40 0 15 -270 447 -297 475 -7 7 -13 17 -13 22 0 5 -6 15 -13 22 -7 7 -39 51
-72 98 -82 116 -197 263 -248 315 -23 24 -134 138 -247 255 -351 363 -601 610
-775 765 -151 134 -220 191 -405 338 -62 48 -254 183 -345 241 -152 97 -200
126 -208 126 -5 0 -21 8 -35 19 -52 36 -208 109 -277 129 -38 11 -131 39 -205
62 -128 39 -193 56 -250 66 -14 2 -36 6 -50 9 -152 28 -485 24 -700 -10 -89
-14 -347 -152 -510 -273 -140 -104 -285 -257 -367 -387 -44 -70 -129 -249
-157 -333 -14 -39 -30 -105 -37 -147 -7 -41 -17 -75 -22 -75 -6 0 -37 13 -71
29 -78 36 -374 137 -456 155 -14 3 -52 12 -85 21 -33 8 -73 17 -90 20 -16 3
-46 10 -65 15 -19 5 -51 12 -70 15 -19 3 -42 8 -50 10 -8 2 -35 7 -60 10 -25
3 -72 10 -105 15 -117 18 -222 25 -395 25 -218 0 -315 -10 -465 -46 -44 -11
-89 -22 -99 -24 -39 -9 -202 -68 -237 -86 -20 -10 -48 -32 -62 -49 -14 -16
-28 -30 -31 -30 -3 0 -88 60 -188 133 -101 73 -203 146 -228 162 -25 17 -47
33 -50 36 -9 11 -428 289 -436 289 -4 0 -17 8 -28 18 -19 17 -267 170 -356
220 -19 10 -62 35 -95 54 -242 143 -620 327 -895 436 -238 95 -609 208 -750
227 -25 4 -48 10 -52 14 -4 4 36 67 90 141 207 284 517 754 667 1012 23 39
165 286 186 323 83 147 269 515 319 630 12 28 26 58 32 69 13 25 36 87 60 166
27 89 79 272 83 290 2 8 17 65 34 125 17 61 47 180 66 265 20 85 38 162 40
170 4 16 84 410 90 445 18 93 56 319 60 355 3 25 7 52 10 60 2 8 7 40 10 70 4
30 8 57 10 60 2 3 6 34 10 70 3 36 8 72 10 80 2 8 6 38 9 65 5 43 28 238 41
345 2 19 7 67 10 105 4 39 8 82 10 96 2 14 6 66 10 115 4 49 9 97 11 106 1 10
6 66 9 125 3 59 8 119 10 133 2 14 7 84 10 155 3 72 8 150 10 175 3 40 10 197
20 460 2 47 6 263 9 480 8 520 17 1018 21 1105 1 39 6 135 9 215 3 80 8 179
11 220 3 41 7 122 10 180 9 196 16 315 20 380 2 36 7 130 10 210 4 80 8 177
10 215 22 395 22 1220 0 1433 -2 20 -6 78 -10 127 -3 50 -8 106 -10 125 -2 19
-6 62 -9 95 -9 91 -17 161 -31 255 -4 25 -8 56 -10 70 -8 61 -20 130 -30 180
-2 14 -7 40 -10 58 -3 18 -12 65 -21 105 -8 39 -17 79 -19 87 -33 157 -159
635 -242 920 -25 85 -49 169 -53 185 -7 28 -36 120 -97 305 -30 93 -91 268
-103 295 -4 11 -27 70 -50 130 -48 127 -38 102 -131 315 -100 228 -278 571
-359 690 -10 14 -34 52 -55 85 -42 65 -175 257 -185 265 -3 3 -30 37 -60 75
-230 296 -598 627 -905 815 -293 180 -301 184 -504 285 -493 246 -1051 436
-1672 569 -156 34 -384 77 -474 91 -22 3 -67 10 -100 15 -33 5 -77 12 -97 15
-21 3 -55 7 -75 10 -75 11 -337 41 -428 49 -33 3 -89 8 -125 12 -105 9 -158
13 -285 19 -66 4 -138 9 -160 11 -45 5 -1102 14 -1107 9z"/>
</g>
</svg>
