<?xml version="1.0" standalone="no"?>
<!DOCTYPE svg PUBLIC "-//W3C//DTD SVG 20010904//EN"
 "http://www.w3.org/TR/2001/REC-SVG-20010904/DTD/svg10.dtd">
<svg version="1.0" xmlns="http://www.w3.org/2000/svg"
 width="700.000000pt" height="700.000000pt" viewBox="0 0 700.000000 700.000000"
 preserveAspectRatio="xMidYMid meet">
<metadata>
Created by potrace 1.14, written by Peter Selinger 2001-2017
</metadata>
<g transform="translate(0.000000,700.000000) scale(0.100000,-0.100000)"
fill="#000000" stroke="none">
<path d="M3380 6297 c-3 -3 -27 -7 -55 -11 -27 -3 -79 -14 -115 -25 -184 -53
-279 -156 -343 -369 -34 -113 -46 -201 -41 -316 2 -49 6 -164 8 -256 3 -92 8
-182 10 -201 3 -19 8 -54 11 -79 14 -118 49 -211 121 -323 24 -37 44 -69 44
-71 0 -1 -19 -9 -42 -16 -56 -16 -129 -54 -200 -101 -49 -34 -60 -38 -83 -29
-36 14 -91 13 -153 -4 l-52 -13 -17 36 c-41 82 -133 104 -234 54 -65 -32 -223
-186 -260 -253 -67 -122 -110 -266 -103 -343 5 -45 33 -104 64 -132 41 -37 42
-48 6 -142 -31 -80 -37 -88 -59 -85 -31 4 -83 -39 -103 -87 -24 -54 -33 -97
-40 -191 -3 -47 -8 -96 -10 -110 -15 -95 -21 -350 -11 -445 16 -157 90 -331
154 -366 12 -6 27 -25 34 -40 14 -36 71 -87 118 -106 47 -20 140 -12 203 16
48 22 132 106 122 122 -3 5 8 30 25 56 17 26 31 51 32 57 0 6 2 19 4 29 7 37
-15 86 -50 107 -22 14 -35 30 -36 43 0 12 -3 41 -5 65 -3 23 -1 42 4 42 30 0
62 169 62 333 l0 108 63 77 c34 42 70 88 79 101 10 14 19 23 21 20 2 -2 16
-26 31 -53 38 -70 135 -203 171 -235 l30 -26 -3 -125 c-3 -96 -8 -127 -19
-135 -21 -16 -31 -125 -18 -215 10 -72 9 -77 -15 -115 -14 -22 -34 -57 -45
-77 -15 -30 -25 -38 -46 -38 -41 0 -57 -9 -78 -44 -24 -38 -87 -298 -107 -435
-5 -40 -15 -54 -69 -106 l-63 -60 -11 -88 c-13 -98 -20 -118 -68 -194 -66
-106 -104 -195 -115 -268 -2 -11 -14 -37 -26 -57 -26 -41 -59 -180 -68 -283
-6 -66 -5 -71 20 -96 14 -14 56 -41 93 -60 l68 -34 278 -3 277 -3 138 46 c75
25 146 55 157 66 21 20 23 67 15 279 -1 36 0 83 3 105 3 22 -1 63 -8 90 -16
62 -14 72 31 163 40 81 46 143 20 205 -13 32 -12 36 11 65 46 59 131 271 172
427 l10 40 181 0 181 0 10 -40 c36 -143 127 -369 172 -427 23 -28 24 -34 12
-62 -27 -63 -21 -125 17 -206 49 -103 48 -101 33 -167 -8 -34 -11 -76 -7 -99
3 -21 4 -70 2 -109 -2 -38 -4 -109 -4 -157 -1 -75 2 -90 19 -107 11 -10 79
-39 152 -64 l132 -45 248 -1 c136 0 269 4 295 9 65 13 148 53 182 89 27 28 28
33 22 93 -13 131 -39 239 -68 286 -11 19 -25 55 -30 81 -9 50 -65 174 -100
224 -50 70 -70 127 -83 242 -8 69 -13 83 -34 90 -9 3 -34 23 -55 44 -33 34
-40 49 -52 117 -22 120 -76 345 -91 382 -20 49 -48 72 -87 72 -25 0 -36 5 -41
19 -3 10 -23 45 -43 78 -33 50 -37 63 -30 93 4 19 8 73 8 120 1 83 -9 134 -28
141 -6 2 -12 59 -14 127 l-4 122 49 51 c48 50 160 212 172 249 9 28 16 25 48
-20 15 -21 50 -66 78 -100 l51 -61 -1 -102 c-2 -136 14 -250 45 -312 14 -29
23 -60 20 -75 -2 -14 -5 -37 -5 -51 -1 -19 -12 -34 -36 -50 -58 -39 -66 -123
-18 -187 13 -18 26 -41 28 -51 11 -57 81 -121 161 -146 114 -36 216 -2 272 90
15 24 37 49 49 56 44 24 97 126 129 249 33 126 36 311 9 570 -2 19 -6 71 -10
114 -10 117 -38 197 -81 236 -25 22 -44 30 -60 27 -21 -4 -27 5 -59 85 -19 48
-35 90 -35 92 0 1 12 16 26 32 14 16 36 48 50 71 51 84 29 222 -64 401 -40 78
-169 214 -246 260 -72 44 -155 53 -204 23 -36 -23 -74 -79 -65 -94 4 -7 -1 -8
-13 -3 -55 22 -125 30 -176 19 -51 -10 -53 -10 -108 27 -69 47 -165 95 -207
105 -18 3 -33 8 -33 10 0 3 20 35 44 72 83 130 107 201 131 388 5 39 14 262
19 472 5 178 -27 321 -102 466 -66 129 -183 203 -377 242 -37 8 -309 17 -315
12z"/>
</g>
</svg>
