<svg version="2.0" xmlns="http://www.w3.org/2000/svg" height="1024" width="1024" viewBox="0 0 1024 1024" preserveAspectRatio="xMidYMid" style="max-width: 100%; max-height: 100vh;">
   <title id="g33kLogoTitle">G33K (Geek) Doctors Business Logo</title>
   <desc id="g33kLogoDesc">A circle with a connected G and D that looks similar to a power plug.</desc>
   <defs>
      <pattern id="a" patternUnits="userSpaceOnUse" width="29" height="50">
         <path stroke-width="3" stroke="#4a4a4a" fill="none" d="M14.498 16.858L0 8.488.002-8.257l14.5-8.374L29-8.26l-.002 16.745zm0 50.06L0 58.548l.002-16.745 14.5-8.373L29 41.8l-.002 16.744zM28.996 41.8l-14.498-8.37.002-16.744L29 8.312l14.498 8.37-.002 16.745zm-29 0l-14.498-8.37.002-16.744L0 8.312l14.498 8.37-.002 16.745z" />
      </pattern>
   </defs>
   <g transform="translate(0, 0)">
      <circle fill="#0066ff" cx="50%" cy="50%" r="500" />
      <circle fill="#0099ff" cx="50%" cy="50%" r="480" />
      <circle fill="#2a2a2a" cx="50%" cy="50%" r="460" />
      <circle fill="#ff6600" cx="50%" cy="50%" r="450" />
      <circle fill="#eaeaea" cx="50%" cy="50%" r="440" />
      <circle fill="#cccccc" cx="50%" cy="50%" r="430" />
      <circle fill="#3a3a3a" cx="50%" cy="50%" r="420" />
      <circle fill="url(#a)" cx="50%" cy="50%" r="420" />
      <g id="plugs" transform="translate(0, 0) rotate(-15 512 512)">
         <path fill="#0066ff" d="M413.304 245.639c-55.455 0-105.971 22.565-142.381 58.976s-58.976 86.927-58.976 142.382 22.565 105.973 58.975 142.383 86.927 58.976 142.382 58.976c9.808 0 19.794-.729 29.661-2.069l.001 20.918c-11.737 2.602-22.158 7.231-30.809 14.308-28.669 23.451-27.443 64.853-5.259 89.794 10.883 12.236 28.102 20.921 47.403 20.921l108.755.422c78.265 1.556 109.083-12.121 139.894-29.91 28.459-16.431 52.243-39.802 65.16-67.975h52.879c13.59 0 26.204-5.596 35.179-14.571 19.237-19.237 19.238-51.124 0-70.362-6.527-6.527-15.007-11.192-24.358-13.293 9.351-2.101 17.832-6.766 24.359-13.292 19.237-19.237 19.237-51.121-.001-70.359a49.93 49.93 0 0 0-35.18-14.573l-55.513-.001c-15.714-29.928-40.534-53.59-68.409-70.475-49.922-31.304-108.341-30.847-165.097-30.853 19.682-10.762 33.188-31.698 33.188-55.279s-14.285-40.993-24.478-50.813c-41.151-39.646-98.311-45.256-127.373-45.256zM472.3 396.988c-25.854-1.098-48.089 1.157-67.292 20.871-22.777 25.451-23.377 66.171 4.111 89.422 6.517 5.512 14.15 9.529 22.649 12.34-5.9 1.498-12.042 2.415-18.464 2.415-20.869 0-39.455-8.371-53.062-21.978s-21.979-32.191-21.979-53.06 8.371-39.455 21.978-53.062c17.678-17.678 38.117-21.797 53.35-21.98 22.936-1.478 40.192 14.069 58.708 25.033zm173.695 165.611c4.371 10.641 10.494 34.953 2.363 57.937-4.023 11.371-16.103 34.579-81.44 39.923l-.002-134.957c58.448 3.87 71.11 17.695 79.078 37.097z" />
         <path fill="#0099ff" d="M399.162 221.035c-55.455 0-105.971 22.565-142.381 58.976s-58.976 86.927-58.976 142.382 22.565 105.973 58.975 142.383 86.927 58.976 142.382 58.976c9.808 0 19.794-.729 29.661-2.069l.001 20.918c-11.737 2.602-22.158 7.231-30.809 14.308-28.669 23.451-27.443 64.853-5.259 89.794 10.883 12.236 28.102 20.921 47.403 20.921l108.755.422c78.265 1.556 109.083-12.121 139.894-29.91 28.459-16.431 52.243-39.802 65.16-67.975h52.879c13.59 0 26.204-5.596 35.179-14.571 19.237-19.237 19.238-51.124 0-70.362-6.527-6.527-15.007-11.192-24.358-13.293 9.351-2.101 17.832-6.766 24.359-13.292 19.237-19.237 19.237-51.121-.001-70.359a49.93 49.93 0 0 0-35.18-14.573l-55.513-.001c-15.714-29.928-40.534-53.59-68.409-70.475-49.922-31.304-108.341-30.847-165.097-30.853 19.682-10.762 33.188-31.698 33.188-55.279s-14.285-40.993-24.478-50.813c-41.151-39.646-98.311-45.256-127.373-45.256zm58.997 151.349c-25.854-1.098-48.089 1.157-67.292 20.871-22.777 25.451-23.377 66.171 4.111 89.422 6.517 5.512 14.15 9.529 22.649 12.34-5.9 1.498-12.042 2.415-18.464 2.415-20.869 0-39.455-8.371-53.062-21.978s-21.979-32.191-21.979-53.06 8.371-39.455 21.978-53.062c17.678-17.678 38.117-21.797 53.35-21.98 22.936-1.478 40.192 14.069 58.708 25.033zm173.695 165.611c4.371 10.641 10.494 34.953 2.363 57.937-4.023 11.371-16.103 34.579-81.44 39.923l-.002-134.957c58.448 3.87 71.11 17.695 79.078 37.097z" />
         <path fill="#2a2a2a" d="M399.163 231.145c-52.752 0-100.7 21.433-135.312 56.046s-56.046 82.559-56.046 135.311 21.433 100.7 56.045 135.311 82.559 56.048 135.311 56.048c13.12 0 26.652-1.402 39.66-3.926l.002 41.143c-13.878 1.828-25.497 6.336-34.478 13.681-23.888 19.54-22.787 54.419-4.122 75.405 9.167 10.306 23.381 17.571 39.934 17.571l108.735.421c77.952 1.555 106.692-12.28 134.913-28.574 28.924-16.7 52.611-41.018 63.675-69.311l59.363-.003c10.888 0 20.932-4.464 28.109-11.641 15.403-15.403 15.403-40.815 0-56.218a39.83 39.83 0 0 0-28.11-11.643h-48.229a294.52 294.52 0 0 0 .211-17.442h48.019c10.888 0 20.933-4.466 28.11-11.643 15.403-15.403 15.403-40.813-.001-56.217-7.177-7.177-17.22-11.644-28.108-11.644l-61.732-.001c-14.459-30.53-39.15-54.84-67.424-71.955-49.63-30.406-100.449-29.371-149.913-29.371l-89.68-.002c-16.445 0-30.59 7.274-39.778 17.541-19.219 21.476-19.589 55.914 3.119 75.121 8.986 7.601 20.836 12.221 35.323 14.043l.001 9.413c-11.347 5.63-24.017 8.932-37.599 8.932-23.571 0-44.727-9.501-60.132-24.906s-24.906-36.562-24.906-60.134 9.502-44.726 24.908-60.132 36.56-24.906 58.386-25.136 38.922 7.629 56.237 20.385c9.559 8.06 21.651 12.542 42.515 12.55s44.844-23.973 44.844-53.155c-.001-20.067-11.576-33.928-21.42-43.412-39.147-37.716-94.879-42.457-120.431-42.457zm216.877 273.763c12.18 6.949 19.422 15.657 25.064 29.395 5.029 12.244 11.836 38.794 2.54 65.072-5.551 15.691-16.929 25.829-32.204 33.209-17.66 8.532-42.102 12.737-68.662 13.914V490.395c15.819.473 51.855 2.299 73.262 14.513z" />
         <path fill="#ff6600" d="M397.748 238.696c-50.05 0-95.427 20.302-128.24 53.115s-53.119 78.192-53.119 128.243 20.304 95.425 53.117 128.239 78.192 53.119 128.243 53.119c16.546 0 33.978-2.313 49.66-6.487l-.002 63.058c-16.521.741-29.34 4.867-38.144 12.068-19.107 15.629-18.126 43.989-2.978 61.019 7.451 8.377 18.653 14.215 32.458 14.215l108.661.421c77.481 1.554 104.182-12.333 129.988-27.232 29.496-17.03 52.762-42.618 61.467-70.655l66.57.003c8.186 0 15.659-3.339 21.038-8.717 11.569-11.569 11.57-30.505.001-42.074-5.378-5.378-12.851-8.715-21.038-8.715l-58.892.002c1.101-14.757.962-28.06.289-37.443l58.602-.001c8.186 0 15.66-3.335 21.038-8.713 11.569-11.569 11.569-30.507 0-42.076-5.378-5.378-12.851-8.715-21.038-8.715l-68.222.003c-12.931-31.045-37.428-56.044-66.117-73.408-46.974-28.796-95.144-27.922-144.728-27.922H436.68c-13.657 0-24.838 5.845-32.324 14.21-15.661 17.5-15.803 45.653 2.123 60.815 8.663 7.327 21.6 11.548 38.867 12.281l.001 24.8c-14.016 8.148-30.205 12.943-47.601 12.943-26.274 0-49.999-10.632-67.203-27.836s-27.834-40.929-27.834-67.203 10.632-49.999 27.836-67.203 40.928-27.837 65.413-28.098 43.902 8.874 56.824 18.978 23.103 13.981 40.27 13.988 36.549-19.378 36.549-43.155c-.001-16.753-8.862-27.064-18.357-36.212-37.105-35.748-91.484-39.656-113.496-39.656zM619.58 493.775c14.039 8.01 23.053 18.923 29.36 34.281 5.687 13.846 13.178 42.631 2.715 72.204-6.576 18.589-20.394 30.718-37.282 38.877-22.058 10.656-51.7 14.851-83.012 15.266l-.001-176.677c21.338.042 62.135 1.167 88.219 16.05z" />
         <path fill="#eaeaea" d="M399.162 246.144c-48.699 0-92.791 19.739-124.705 51.653s-51.653 76.005-51.653 124.705 19.739 92.791 51.653 124.705 76.005 51.653 124.705 51.653c18.32 0 38.048-2.797 54.661-7.981v74.246c-18.327 0-31.445 4.262-39.98 11.244-16.716 13.673-15.798 38.774-2.409 53.827 6.593 7.413 16.294 12.537 28.724 12.537h87.619c84.285 1.698 108.623-3.1 148.53-26.14 29.875-17.248 53.136-43.602 60.373-71.323h70.164c6.835 0 13.023-2.77 17.502-7.25 9.652-9.652 9.652-25.353 0-35.005-4.479-4.479-10.667-7.25-17.502-7.25h-64.248c1.779-18.821 1.488-38.446.439-47.442h63.809c6.835 0 13.023-2.77 17.502-7.25 9.652-9.652 9.652-25.353 0-35.005-4.479-4.479-10.667-7.25-17.502-7.25h-71.468c-12.038-31.287-36.532-56.619-65.461-74.129-45.646-27.992-92.492-27.199-142.139-27.199h-89.682c-12.262 0-21.964 5.129-28.599 12.543-13.882 15.512-13.908 40.523 1.628 53.664 8.316 7.034 21.433 11.401 40.637 11.401v32.495c-15.284 9.467-33.298 14.946-52.598 14.946-27.625 0-52.636-11.197-70.739-29.3s-29.3-43.114-29.3-70.739 11.197-52.636 29.3-70.739 43.114-29.3 70.739-29.3c24.001-.553 44.58 9.22 63.391 23.078a38.16 38.16 0 0 0 25.302 9.632c21.075 0 38.159-17.085 38.159-38.159-.001-15.096-7.506-23.633-16.826-32.612-22.696-21.866-61.921-38.258-110.026-38.258zM527.776 475.1c24.226-.127 67.111.47 95.696 16.779 14.968 8.54 24.866 20.558 31.506 36.725 6.016 14.647 13.851 44.553 2.806 75.773-7.089 20.038-22.128 33.163-39.821 41.711-24.384 11.78-56.597 15.933-90.187 15.933z" />
      </g>
   </g>
</svg>