<svg version="2.0" xmlns="http://www.w3.org/2000/svg" height="189.75" width="1024" viewBox="0 0 1024 189.75" preserveAspectRatio="xMidYMid" style="max-width: 100%; max-height: 100vh;"><title id="g33k_text">G33K (Geek) Doctors Business Logo</title><desc id="g33k_description">Geek Doctors business name, using a relaxed style font called 'Henny Penny'.</desc><path style="fill:#06f" d="M343.88 3.82a26.7 26.7 0 0 0-8.53 2.31c-5.37 2.54-9.09 3.05-13.8 3.86-11.41 2.4-24.87-1.8-34.43 6.38-1.97 1.8-4.24 6.78-4.24 6.78-9.32-1.82-22.65-1.39-33.88-2.84-7.49-1.04-19.66-4.6-24.91-4.12-2.93.27-5.95 1.07-8.37 2.73-2.73 1.87-6.28 7.7-6.28 7.7s-3.87-3.02-7.31-3.61c-11.77-2.05-25.71-.36-43.29-4.53-9.2-2.19-17.5-4.36-24.78 1.63-11.42.28-14.9 9.57-19.96 15.2-2.3 2.57-3.82 2.56-7.57 1.55-24.02-6.43-41.04-5.72-60.66 2.37-30.69 13.56-41 41.16-41.79 60.88-.56 14.03 2 47.17 36.35 61.77 23.9 10.23 50.78 4.56 69.2-7.72 9.08 5.75 17.49 5.34 23.79-1.58 23.7 30.94 67.92 24.2 83.62 4.26 11.12 13.56 48.5 29.75 78.4 1.8 8.66 13.68 21.14 7.01 31.99 9.42 9.74 2.17 20.28 8.07 29.6 4.5 4.65-1.78 8.5-6.66 9.5-11.54.93-4.59-.67-9.87-3.98-13.47-3.87-4.22-10.2-5.98-11.75-7.33a3.9 3.9 0 0 1-1.28-2.02c-1.52-4.49-.97-9.46-1.2-14.16 5.23 7.41 15.64 18.66 24.5 24.21 21.3 13.37 37.96 11.93 47.3 9.07 9.49-2.9 23.04-10.18 27.56-28.36 4.18-16.84-4.25-31.01-5.33-32.74-7.3-11.65-16.13-14.15-19.12-14.68-10.86-1.91-16.07 4.86-17.74 7.68a17.3 17.3 0 0 0 .86 18.29c3.22 4.76 6 4.89 6.55 8.9-8.76-2.31-11.16-4.09-17.57-10.7-3.95-4.06-9.66-11.93-12.87-17.64-3.45-6.13-9.25-18.97-9.25-18.97 2.52-3.17 8.63-10.83 12.93-14.96 6.97-8.14 15.85-2.8 23.59-5 17.48-4.96 18.34-27.6 0-32.66-6.72-1.86-13.97-.4-20.87-1.36-16.33-2.27-19.45-10.87-31.48-5.95-4.29-4.28-8.82-5.7-13.5-5.35zM777.2 14.4c-9.07.24-16.38 7.56-19.21 15.78-2.45 5.84-3.14 12.9-8.02 17.38-4.04 1.83-10.6 5.42-14.18 1.64-2.88-3.96-7.33-6.52-11.68-8.64-13.23-5.95-29.05-3.98-41.54 2.88a57.6 57.6 0 0 0-20.03 20.5c-13.94-14.02-36.27-17-54.48-10.59-5.5 1.21-10.49 6.24-15.05 7.46-2.3-3.2-3.51-7.1-6.28-10.02C576.5 37.4 559.68 30.19 543.05 30c-18.53-.32-36.71 5.99-55.29 3.8-6.24-1.04-13.45-1.68-18.6 2.76-5.9 4.4-8.32 13.1-4.5 19.62 2.76 5.1 8.1 8.4 13.64 9.7 2.41 2.69 1.39 6.62 2.18 9.88 1.99 20.27 2.42 40.73.67 61.03-1.5 9.95-8.4 18.15-16.52 23.65-5.88 5.34-8.15 15.2-3.4 22 4.95 7.19 15.88 9.56 23.24 4.86 9.39-8.29 19.1-16.55 30.72-21.55 10.04-4.73 21-6.82 31.7-9.46 13.59-3.64 27.4-9.42 36.74-20.34 3.1-5.52 5.85 2.79 9.07 4.32 18.48 15.93 48.72 16.74 67.24.43 2.68-1.23 4.95-8.1 7.1-3.33 10.78 13 29.1 17.67 45.3 14.53a42.34 42.34 0 0 0 22.7-12.11c2.3.97 2.54 5.45 4.63 7.46 6.41 10.1 17.43 16.9 29.25 18.45 13.35 2.08 28.05-1.98 36.96-12.52 2.63-1.93 3.83-7.44 6.17-7.9 16.42 9.67 38.14 9.8 54.42-.18.49 3.8 1.08 8.19 3.96 11.3 4.45 5.64 12.35 7.98 19.2 5.87 9-1.99 17.98-4.86 27.29-4.67 3.27 3.15 5.26 8.87 10.7 10.05 5.07 1.94 11.23 1.47 15.6-1.89 4.03.5 6.18 5.46 10.17 6.82 9.2 6.12 20.54 8.2 31.42 6.97 10.34-.92 20.4-5.47 27.36-13.3 6.51-6.61 10.13-15.53 11.2-24.66 2.14-14.27-1.15-29.63-10.57-40.8-2.75-3.52-5.77-6.83-8.66-10.25 5.4-3.64 8.33-10.14 7.96-16.58.54-7.38 2.07-14.63 3.9-21.77 1.54-7.85-2.23-16.92-10.01-19.83-5.85-2.42-13.04-1.13-17.44 3.5-3.41 2.64-7.86-.3-11.78.74a41.36 41.36 0 0 0-17.2 4.64c-7.59-12.7-24.8-17.28-38.3-12.19a30.9 30.9 0 0 0-11.16 6.9c-3.78-.84-7.72-2-11.53-.45a16.47 16.47 0 0 0-10.87 10.1c-1.7 4.8-7.13 4.07-11.16 4.7-4.69.3-6.72 5.11-10.42 6.78a53.14 53.14 0 0 0-14.4-5.6c-15.15-3.32-32-.53-44.5 8.94-1.38-6.38-6.7-11.87-13.21-13-1.55-3.45 1.38-7.62 1.02-11.54.63-6.5-1.33-13.55-6.76-17.6-3.09-2.52-7.05-4.1-11.08-3.89zM351.43 34.8a33.98 33.98 0 0 0 3.1 3.34c-3.35 4.31-4.4 5.58-7.54 9.23.02-4.88.13-6.36.55-10.65 1.9-.9 2.43-1.17 3.9-1.92zm-56.85 9.22c1.63.4 2.17.47 3.89.58 2.01 22.21 2.47 28.94 3.61 48.58-6.98-12.15-21.85-20.12-25.23-21.9 9.77-12.59 16.13-21.13 17.73-27.26zm-86.13 11.6s-.32 7.15-.24 10.72c.31 14.01 9.62 16.88 13.15 17.46 4.95.82 9.53-1.56 9.53-1.56.3 5.31 2.47 8.82 6.25 11.8 2.2 1.73 10.81 5.73 15.3 9.36 5.14 3.85 9.12 8.89 9.69 15.45.44 7.92-2.83 10.28-6.21 11.16-4 1.04-10.56-.84-14.53-4.32-7.84-6.86-6.76-19.14-10.65-27-2.76-5.55-5.5-7.6-11.49-9.46 0 0-6.41-6.98-10.1-9.93-3.84-3.07-12.4-8-12.4-8zm320.82 8.73c4.27.2 10.45 1.7 13.85 7.5 6.6 10.1 6 22.92 4.16 34.34-1.39 6.6-3.53 13.87-9.07 18.18-3.27 1.97-9.36 3.48-9.5-1.58-2.63-12.27-3.21-24.89-3.87-37.4-.29-6.89-.6-13.78-.15-20.66.16-.16 2.03-.5 4.58-.38zm-449.25.9c5.93-.08 10.93 1.89 12.23 3.3 2.2 2.85 1.38 6.41.99 9.68-.5 3.24-.18 6.43.4 9.63-14.52 1.97-19.38-.67-27.47 4.82a16.72 16.72 0 0 0 4.77 29.03c3.78 1.36 9.65 1.32 17.73.06.02 7.08-1.95 8.13-5.08 9.58-7.7 3.06-16.62 1.16-22.02-5.1-7.31-9.43-8.77-39.28.66-52.02 5-6.77 11.86-8.9 17.79-8.98zm50.45 11.07c2.5 3.5 8.77 11 20.35 5.94.03 4.7 1.74 6.86 3.89 9.54 2.75 3.44 12.77 7.66 17.4 11.44 5.28 3.96 9.43 9.6 9.92 15.79.3 3.68-1.02 8.6-4.35 10.2-5.37 2.6-12.82-.75-17.25-4.73-7.7-6.91-5.47-20.36-11.35-28.86-1.34-1.93-2.21-2.7-5.23-4.73-2.79-6.08-6.78-9.68-15-10.22zm661.8 3.56a55.4 55.4 0 0 0-4.3 22.72c-3.63-.2-8.72 4.72-9.93 4.43.77-8.85 2.84-17.56 5.9-25.88 2.41-1.83 5.62-.57 8.33-1.27zm-165.6 2.76 3.25 6.27 2.04 11.37.28 10.96-1.77 7.2-4-7.3-1.96-10.6-.07-10.86zm212.34 0c3.62 4.6 3.95 10.74 5.07 16.27.78 6.02.93 12.27-.58 18.18-2.92 2.47-3.73-4.7-4.8-6.6-2.3-8.1-2.83-16.86-1.01-25.1.3-.97.73-1.91 1.32-2.75zm-143.4 1.9c1.89 4.9 8.4 6.65 10.1 10.68.22 5.23 4.72 8.83 5.6 13.76.83 5.27-6.02 4.46-8.7 2.23-5.59-4.61-6.44-12.22-7.17-18.97-.18-2.56-.14-5.14.17-7.7zm229.79 2.2c5.35 2.76 11.67 3.14 17.48 1.87 2.35 5.64 6.03 10.59 9.8 15.34-5.98 2.38-9.55 8.14-11.9 13.83-2.23 3.04-3.37 10.01-8.01 7.4-4.6.75-4.34-4.2-4.84-7.34-1.52-10.29-2.84-20.67-2.53-31.1zm48.2 41.32c2.4 4.69 6.2 10.16 3.68 15.56-3.89 4.82-8.87-3.25-6.57-7.25.68-2.86 2.1-5.48 2.9-8.31z"/><path style="fill:#09f" d="M340.68.04c-4 .25-7.9 1.84-11.74 3.35-5.95 2.12-8.43 2.59-14.83 3.25-5.64.58-10.42.64-15.64.73-8.48.15-16.53 2.5-19.47 11.9-2.75-1.32-21-1.6-31.49-2.52-10.96-.97-23.9-6.94-32.87-3.15-7.07 3-9.08 9.16-9.08 9.16s-3.29-2.57-5.23-3.2c-8.6-2.8-18.06-1.1-27.03-2.19-7.29-.89-11.74-1.11-21.74-3.55-6.22-1.5-10.88-2.16-16.27-.51-1.86.61-5.1 2.93-5.1 2.93-2.14.14-5.97.9-8.49 2.41-5.83 3.52-9.16 12.42-14.1 14.79-2.63 1.26-21.24-6.72-41.02-4.5-15.6 1.76-36.99 7.99-52.01 27.47C11.26 60.71 2.72 72.24.45 93.15c-2.26 20.76 4.39 36.27 12.36 47.02 15.03 19.76 38.37 22.78 48.26 23.13 16.27.78 30.97-4.97 44.69-13.02 0 0 5.32 3.93 11.6 3.93 8.52 0 12.15-5.52 12.15-5.52s13.83 21.25 45.65 21.25c23.78 0 37.92-17.09 37.92-17.09s14.64 17.05 41.31 17.05c24.15 0 37.12-15.17 37.12-15.17s4.06 10.21 19.27 9c10.4-.83 13.6.1 23.35 3.62 5.84 2.11 13.26 3.67 19.08 1.25 8.42-3.5 9.6-9.86 9.6-15.43 0-13.27-16.2-15.27-17.13-18.74-.82-3.06-1.21-14.23-1.21-14.23s24.39 37.9 62.6 34.94c34.91-2.7 40.4-34.15 37.15-47.48-2.57-10.57-6.48-19.34-14.13-25.18-5.07-3.86-12.38-6.17-18.56-4.62-4.88 1.23-9.52 5.4-11.18 10.14a17.22 17.22 0 0 0 2.65 16.34c2.47 3.15 4.2 4.13 5.16 5.79.74 1.28.85 2.38.85 2.38s-5.8-.4-12.4-5.68c-13.57-10.86-23.87-33.44-27.28-41.6 4.9-6.18 10.7-13.16 13.94-15.9 2.96-3.08 6.34-3.72 10.4-3.79 4.76.3 9.6.56 14.2-.91a17.07 17.07 0 0 0 9.95-9.14 16.48 16.48 0 0 0-.55-14.39c-2.57-4.97-7.29-7.49-12.52-8.77-4.26-1-13.2-.31-17.41-.74-6.74.06-12.53-2.86-18.43-5.5-8.86-3.98-15.42-.78-15.42-.78s-3.43-3.1-5.51-4a15.1 15.1 0 0 0-7.3-1.27zM773.6 10.75c-7.52-.03-15.48 4.74-19.49 15.55-6.18 16.66-3.91 18.15-20.49 21.18-11.74-17.7-52.03-24.66-74.95 12.59-6.17-7.96-37.81-25.81-69.48-2.02-11.29-24.32-30.87-30.59-50.02-31.92-10.1-.7-33.29 4.17-48.02 4.34-5.95.07-11.94-2.07-17.83-1.22-14.55 2.12-20.4 19.94-6.7 29.36 2.61 1.8 8.63 3.98 8.63 3.98s3.08 25.91 3.09 38.93c0 17.83.86 29.29-5.1 42.11-4.42 9.53-16 12.4-18.03 22.65-2.08 10.52 5.3 18.28 12.74 19.4 5.21.8 10.01 0 15.15-4.49 22.45-19.6 35.03-22.53 59.92-28.77 20.9-5.24 29.12-11.36 39.1-23.07 12.17 16.64 50.88 32.97 79.34 2 11.2 16.42 44.85 28.22 69.7 4.57 20.8 39.02 64.58 30.15 76.26 5.01 18.88 10.26 37.91 10.2 55.17.3 2.1 25.33 26.15 16.8 40.4 13.3 2.12-.53 11.17-.82 11.17-.82 3.09 8.88 13.45 15.56 26.1 7.67 9.56 8.6 21.15 16.46 40.67 14.3 26.18-2.9 36.93-22.78 38.57-37.95 2-18.38-2.65-28.2-6.91-35.44-3.34-5.66-12.27-15.45-12.27-15.45 4.4-2.1 7.44-9.05 7.9-16.74.46-7.37 2.45-14.8 3.9-21.8 3.54-17.12-16.51-28.44-28.64-15.1a45.38 45.38 0 0 0-27.78 4.18c-10-16.09-34.3-19.48-49.7-5.19 0 0-5.25-2.84-12.65-.06-7.5 2.83-9.73 11.42-12.56 13.05-3.33 1.92-10.8-.74-17.84 8.45-15.7-9.5-40.33-11.01-59.78 3.08-.53-5.74-6.31-12.56-14.03-13.48 0 0 1.71-7.43 2.02-11.21 1.08-13.27-7.88-21.23-17.56-21.27zM347.55 30.94l3.14 3.3-7.58 9.23.56-10.64zm-56.86 9.21 3.9.55 3.64 48.6c-7.85-10.43-11.16-13.78-25.26-21.89 6.43-8.67 14.15-16.9 17.72-27.26Zm-86.12 11.6s-2.9 17.69 4.72 24.08c9.15 7.66 17.74 2.52 17.74 2.52s-.17 5.1 3.86 9.66c4.87 5.53 32.23 14.31 26.6 32.89-1.24 4.05-5.41 6.64-11.71 4.95-20.2-5.41-12.36-27.73-23.46-37.4-1.91-1.65-6.93-3.1-6.93-3.1s-6.28-6.96-9.93-9.88c-3.9-3.12-12.64-8.05-12.64-8.05zm319.94 8.8c2.03 0 4.44.15 5.95.7a19.14 19.14 0 0 1 8.22 5.91c2.46 3.02 3.78 6.9 4.75 10.67 1.18 4.57 1.36 9.39 1.23 14.1a53.8 53.8 0 0 1-1.88 13.33c-1.2 4.17-2.71 8.4-5.27 11.91-1.26 1.72-2.81 3.41-4.77 4.25-2.05.87-6.65.52-6.65.52s-2.48-9.9-3.24-14.94c-.77-5.08-.97-10.23-1.32-15.35-.35-5.17-.65-10.34-.77-15.52-.12-5.16.06-15.48.06-15.48s1.65-.12 3.69-.1zM75 61.43c3.41-.1 13.27.12 14.65 5.82.55 2.76-.12 5.55-.44 8.29-.45 2.85-.01 5.62.6 8.4 0 0-7.08.75-10.63 1.03-3.23.25-6.53-.1-9.7.6a17.1 17.1 0 0 0-10.34 6.52 16.7 16.7 0 0 0-3.32 10.18 15.49 15.49 0 0 0 3.33 9.87 16.17 16.17 0 0 0 9.26 6.06c5.29 1.33 12.54.26 16.38-.33 0 0 .08 4.76-1.17 6.61-3.21 4.75-11.38 4.38-13.99 4.13-4.09-.39-8.6-.88-12.95-7.87-3.74-6.02-4.72-16.95-4.93-19.92a69.3 69.3 0 0 1 .96-15.76c.87-5.17 2.6-10.15 5.6-14.48A20.92 20.92 0 0 1 75 61.44zm51.58 11.03s2.79 5.1 8.6 6.9c6.77 2.1 11.76-1 11.76-1s-.67 8.84 10.5 14.36c14.04 6.92 23.93 17.55 19.77 28.28-1.92 4.96-6.6 7.68-15.6 3.5-9.15-4.27-11.68-17.14-13.93-26.9-1.93-7.87-7.72-10.57-7.72-10.57s-1.38-4.64-6.27-7.7c-4.19-2.6-8.72-2.53-8.72-2.53zM788.39 76s-2.64 7.45-3.37 11.31c-.7 3.78-.94 11.5-.94 11.5s-3.55.9-5.18 1.71c-1.76.87-4.86 3.3-4.86 3.3s1.19-9.33 2.24-13.9c1.03-4.47 3.97-13.17 3.97-13.17s2.68-.45 4.03-.57c1.37-.13 4.11-.18 4.11-.18zM622.8 78.77s2.6 4.48 3.4 6.92c1.1 3.4 1.56 6.99 1.89 10.54.38 4.21.64 8.5.09 12.68-.26 1.94-1.56 5.66-1.56 5.66s-2.45-3.3-3.22-5.18c-1.51-3.67-2.19-7.67-2.65-11.61-.48-4.1-.72-8.3-.1-12.37.36-2.3 2.15-6.64 2.15-6.64zm212.25 0s2.82 5 3.68 7.72c1.02 3.2 1.4 6.57 1.7 9.9.36 3.9.64 7.85.17 11.73-.27 2.2-1.69 6.44-1.69 6.44s-2.69-3.87-3.52-6.05c-1.4-3.67-1.94-7.65-2.37-11.56-.37-3.25-.6-6.57-.2-9.82.34-2.87 2.23-8.36 2.23-8.36zm-143.4 1.87s2.76 3.66 4.44 5.19c1.66 1.5 5.5 3.83 5.5 3.83s.57 4.28 1.37 6.25c.77 1.92 2.3 3.46 3.26 5.29.51.97 1.18 1.93 1.34 3.01.18 1.28.16 2.72-.48 3.83-.24.43-.7.72-1.16.9-.8.28-1.7.21-2.55.1a10.3 10.3 0 0 1-4.28-1.27c-1.33-.84-2.25-2.23-3.15-3.52a18.33 18.33 0 0 1-2.31-4.37c-1.16-3.31-1.63-6.86-1.96-10.35-.28-2.95-.02-8.89-.02-8.89zm229.87 2.23c7.25 2.53 9.73 2.81 17.48 1.87 3.44 6.81 4.77 8.92 9.81 15.19 0 0-3.73 2.07-5.24 3.55-5.09 4.95-6.04 11.1-11.9 18.99a19.16 19.16 0 0 0-6.52-1.64c-3.64-21.27-3.72-29.61-3.63-37.96zm48.27 41.38c3 5.19 4.41 8.61 4.53 10.87a11.5 11.5 0 0 1-.8 4.64c-.34.85-1.73 1.72-2.49 1.72-.87 0-2.65-.86-3.81-2.02-.27-.27-.86-3.44-.86-4.29 0-1.48 1.2-5.82 3.43-10.92z"/><path style="fill:#2a2a2a" d="M342.8 4.92a14.94 14.94 0 0 0-3.38.03c-4.71.55-8.95 4.03-17.83 5.58-13.83 2.4-26.65.94-30.96 2.85-9.59 4.24-7.29 13.78-7.29 13.78s-2.79-4.23-14.56-4.23c-13.36 0-26.85-1.06-39.77-4.78-5.93-1.5-13.73-1.87-17.53 3.94-4.35 6.36-1.97 14.3-2.25 21.44.33 7.42-.13 14.86.11 22.26.74 6.69 8.3 11.54 14.57 8.63 7.67-3 6.42-13.08 12.2-19.69 2.77-3.17 12.65-2.3 12.65-2.3s-4.9 6.65-6.66 8.92c-3.88 5.03-9.47 10.25-10.12 15.81-.82 6.68 5.53 10.17 10.54 12.76 8.7 4.89 18.4 11.38 20.22 21.97.98 6.2.05 14.2-5.95 17.6-29.83 7.98-32.26-25.56-34.15-32.03-2.21-7.6-9.85-7.49-9.85-7.49s-3.84-5.73-11.7-11.72c-6.4-4.88-15.81-8.97-15.81-8.97s16.33-19 20.8-30.7c1.72-6.29-2.4-13.6-9.01-14.66-7.97-1.89-16.26-.77-24.35-1.74-9.1-.54-16.22-2.3-27.34-4.62-9.18-1.92-13.33 3.68-13.33 3.68S125 19.4 118.81 28.2c-3.2 4.37-6.7 10.62-12.95 10.22-8.35-.85-16.29-4.28-24.73-4.7a76.54 76.54 0 0 0-35.08 5.13c-33.27 13.35-43.21 45-40.77 69.43 3.32 31.6 28.03 50.46 59.12 49.97 23.18-.36 41.5-13.32 41.5-13.32s7.6 6.57 15.37 3.78c6.97-2.5 7.18-10.4 7.16-11.4 0 0 12.09 27.82 45.05 27.82 16.45.4 31.52-8.33 39.51-20 6.1 7.62 15.26 17.56 35.7 19.73 23.03 2.45 49.62-11.36 52.23-44.37 1.47-18.51-7.67-31.05-12.63-36.01-9.77-9.77-22.9-15.21-22.9-15.21s7.22-9.64 12.39-15.9c11.1-13.45 8.28-21.3 8.28-21.3s3.46 4.65 12.83 4.14c0 0 3.07 33.2 4.1 49.85 1.01 16.66 2.03 50.03 2.03 50.03s-4.13 1.07-7.05 3.77c-4.94 4.58-3.97 13.08 1.17 16.51 6.96 4.81 15.62 1.28 23.37 2.44 9.4 1.5 18.26 7.76 28.07 5.61 6.98-1.93 9.92-11.6 4.99-17-3.49-4.98-11.21-4.57-13.93-10.15-2.75-11.07-2.3-22.82-2.46-34.19 5.55 8.58 10.74 17.48 17.9 24.86 12.45 13.55 30.3 23.8 49.2 22.35 12.43-.75 25-7.55 30.23-19.26 7.37-15.28 2.86-35.65-11.03-45.66-5.32-3.75-13.9-4.96-18.4.69-3.73 4.11-3.16 9.54-1.59 12.97 1.8 3.91 5.11 5.72 6.28 7.74 4.99 8.64.78 10.6-1.81 10.6-15.22 0-34.7-21.7-46.12-52.92 4.34-6.1 16.94-22.73 26.14-23.66 6.8-.58 14.71 1.97 20.4-3.1 6.3-5.2 4.69-17.04-3.4-19.56-7.96-2.88-16.62-.45-24.8-2.31-8.54-1.3-14.35-5.37-17.98-6.34-7.97-2.13-12.24 2.54-12.24 2.54s-2-6.3-9.15-7.1zm431.05 10.73c-11.93.08-15.02 12.68-16.5 16.52-1.28 3.35-4.1 15.35-12.62 17.63a706.4 706.4 0 0 1-13.36 3.32s-5-10.27-18.09-13.78c-6.58-1.76-15.93-1.25-21.77.24a44.38 44.38 0 0 0-21.9 13.67 56.05 56.05 0 0 0-9.91 15.53c-7.39-10.77-20.28-16.85-33.12-17.61-12.63-.71-25.86 2.9-35.37 11.5a38.03 38.03 0 0 0-3.84 4.01c-4.36-16.1-17.62-29.6-33.89-33.62-12.01-3.39-24.68-2-36.82-.14-12.77 1.98-23.1 3.29-32.06 1.91-13.63-2.08-17.52.96-19.82 5.87-2.35 5.04 0 10.37 3.97 13.4 2.6 1.97 6.91 2.35 9.63 4.66 4.29 3.63 4.48 34.42 4.62 41.11.24 11.6.15 25.9-1.1 34.75-1.39 9.87-7.22 16.92-17.48 25.55-5.07 4.25-6.4 11.67-2.48 16.58 4.25 5.17 11.55 6.47 19.17-.18 27.15-23.75 39.04-22.87 64.3-29.81 15.6-4.3 23.86-10.2 30.55-17.7 1.92-2.14 6.2-8.37 6.2-8.37s1.63 3 4.78 6.92c7.48 9.3 20.26 15.96 35.35 16.23 28.1.5 39.25-21.04 39.25-21.04s7.74 15.68 25.73 19.93c11.42 2.69 23.12 1.01 31.87-3.6 8.2-4.32 14.36-14.74 14.36-14.74s2.33 10.34 6.04 15.64c3.95 5.64 8 10.52 15.33 13.84 11.46 5.16 25.56 5.04 36.38-1.65 3.36-2.02 7.95-6.56 10.2-10.26 1.98-3.28 3.65-8.56 3.65-8.56s3 2.29 4.26 3.05c15.75 9.62 35.85 10.03 51.05.34 9.84-6.23 16.5-16.76 18.96-28.04 1-4.45 1.42-9.02 1.25-13.57.9 11.1 2 22.18 2.4 33.3-2.24 2.7-6.36 1.47-8.9 3.66-5.29 2.72-8.19 9.92-5.18 15.3 2.66 5.45 9.53 8.08 15.24 6.32 9.38-1.94 13.38-3.74 22.06-4.51 1.85-.17 11.95-.51 11.95-.51s0 4.3 2.37 7c3.32 3.77 7.59 5.77 14.28 3.1 2.31-.92 6-3.9 6-3.9s3.43 3.82 6.32 6.16c14.38 11.64 30.57 12.2 45.58 6.64 11.97-5.19 20.53-17.18 21.87-30.11 3.55-22.5-6.93-37.23-23.5-52.93 0 0 10.63.84 12.04-12.75.72-6.96 1.6-14.72 3.06-20.19 1.97-7.35 1.53-11.57-1.08-15-4.3-5.67-10.98-5.18-14.7-3.08-2.7 1.54-4.8 4.85-4.8 4.85s-8.58-1.82-16-.51c-11.07 1.96-15.87 6.27-15.87 6.27s-2.52-5.82-5.52-8.68c-2.05-1.96-7.46-5.56-12.42-6.77-4.6-1.12-12.79-1.11-18.6 1.6a31.1 31.1 0 0 0-10.55 7.92s-3.04-2.92-7.74-2.54c-6.11.5-8.88 4.65-10.27 7.23-6.3 11.7-14.01 5.13-20.4 11.74-2.66 2.74-3 6.55-3 6.55s-6.52-4.5-9.52-5.98c-14.66-6.67-32.55-5.44-46.31 2.84-10.55 6.55-17.26 18.03-19.71 30.1-1 4.93-.51 14.89-.51 14.89s-5.84-.22-10.51 3.22c-3.26 2.4-7.33 7.55-6.75 14.44a19.01 19.01 0 0 0 5.7 12.16c-6.43.65-8.37-9.9-8.74-18.65-.77-18.09 5.56-39.09 8.09-41.48 1.46-1.38 6.8-1.3 10.58-1.6 4.53-.35 9.33-3.76 10.6-8.55 1.4-5.3-.91-9.81-4.03-12.26-3.97-3.11-11.17-2.5-11.17-2.5s2.17-7.97 2.87-11.98c2.53-14.58-5-20.38-12-20.34zm-424.69 8.3c1.4 3.93 4.67 6.7 7.67 9.45-6.93 9.74-9.4 12.9-18.29 22.8-.95-18.52.55-25.55.72-25.96.7-1.6 5.31-2.34 9.9-6.29zM168.62 52.38c-4.9 7.8-11.77 14.24-16.34 22.23-2.4 6.64 3.18 12.6 9.05 14.75 9.08 4.92 19.22 11.49 21.3 22.4 1.28 6.63-.25 15.4-7.13 18.33-9.43 3.48-20.68-1.48-25.56-10.04-4.3-6.6-5.28-14.5-7.17-21.95-.72-4.24-4.78-5.92-7.15-8.86-1.65-5-6.28-7.55-11.06-7.55-4.18 0-7.21 1.26-7.21 1.26 3.88-9.1 6.58-18.7 11.71-27.22.13 5.94-1 13.36 4.45 17.4 4.98 3.97 13.4 2.13 15.79-3.93 2.8-5.2 2.94-12.41 8.48-15.73 3.4-1.55 7.24-.85 10.84-1.09zm356.72 3.5c8.75.22 16.64 3.84 20.46 13.9 4.47 10.06 4.3 21.45 2.55 32.11-5.13 30.14-22.58 25.44-25.18 23.94-7.03-4.05-8.6-56.79-6.75-69.15 2.99-.56 6-.87 8.92-.8zm-447.6.66a26.2 26.2 0 0 1 13 3.8c7.49 5.65 1.55 15.32 3.73 22.38a15.4 15.4 0 0 0 2.8 5.07c-19.99 3.17-23.98 1.7-28.02 2.79-2.84.76-6.31 3.54-7.5 6.66-2.08 5.42-.72 8.64 1.38 12.11 1.08 1.77 5.11 4.28 8.43 4.58 5.09.45 10.85-.8 17.55-1.12.76 5.69 1.1 12.23-3.28 16.55-6.37 5.77-26.06 7.52-33.27-6.15-6.15-11.66-6.48-26.17-4.66-39.28 1.9-11.73 9.42-23.9 21.69-26.65 2.64-.58 5.4-.84 8.16-.74zm897.76 3.33c1.57-.16 3.62.68 3.62.68s.77 1.37.89 3.3c.24 3.46.13 6.93.14 10.4 0 0-2.5-2.07-4.38-5.07-1.5-2.38-4.02-6.15-1.6-8.74.33-.34.8-.51 1.33-.57zm-283.14 4.07s-.77 10.6 6.68 18.05c2.58 2.58 7.62 4.57 7.62 4.57s-.27 3.84.14 5.69c1 4.56 5.6 6.83 5.6 12.83 0 5.13-2.13 8.41-6.3 8.73-14.7 1.1-19.27-13.33-19.49-28.86-.22-15.29 5.75-21 5.75-21zm224.87 9.33c7.22 8.48 18.94 8.02 24.88 5.44 2.51 9.09 9.33 17.13 16 24.91-15.34-2.04-14.48 14.44-25.4 25.37-4.14-3-5.81-3.58-11.56-3.11-4.32-23.78-5.44-40.58-3.92-52.6zm-83.02.2c3.55-.13 5.91 3.11 7.12 6.06 2.38 5.82 3.48 12.1 4.06 18.32.37 6 .47 12.24-1.69 17.95-.79 2.28-3.11 4.27-5.65 3.59-3.53-.8-5.26-4.39-6.44-7.47-3.85-9.36-4.43-19.82-2.93-29.75.84-3.3 1.93-7.43 5.53-8.7zm-212.34.02c3.55-.15 5.86 3.12 7.13 6.05 3.51 8.14 6.21 24.82 3.03 34.66-1.3 4.05-3.18 5.75-6 5.22-3.67-.7-5.52-4.43-6.76-7.49a54.64 54.64 0 0 1-2.92-29.75c.6-3.35 1.93-7.44 5.52-8.7zm253.26.31 3.46.23 1.47 14.78c-1.15-6.06-2.21-9.67-4.93-15zm-143.15 1.7c2.26.24 3.4.24 5.7.16a291.3 291.3 0 0 0-3.4 15.69 32.94 32.94 0 0 0-6.97-9.06 22.34 22.34 0 0 0 4.67-6.79zm234.72 37.3c5.75 6.02 10.83 13.2 12.4 21.53.57 4.39-1.22 9.6-5.53 11.43-4.22 1.79-9.1-.97-10.95-4.87-1.68-3.17-1.05-6.92-.25-10.24 1.61-5.88 5.31-11.5 4.33-17.85z"/><path style="fill:#f60" d="M339.16 10.12c-4.74.48-8.64 3.39-13.23 4.48-10.73 2.56-21.77 2.5-32.68 3.15-2.66.16-5.53 2.53-4.9 5.43.62 2.87 3.82 3.6 6.4 3.62 2.92 0 6.65.19 8.31 3 1.5 2.53 1.31 5.6 1.67 8.44 2.04 16.39 2.66 32.91 3.7 49.39.9 14.35 1.8 28.72 1.96 43.1.02 2.47.14 5.14-.98 7.4-1.35 2.68-4.67 2.95-7.14 4.08a3.74 3.74 0 0 0-.7 6.37c2.15 1.6 4.93 1.2 7.41 1.13 5.07-.14 10.2-.74 15.2.5 7.02 1.74 13.63 5.3 20.96 5.56 2.85.1 4.87-3.36 2.85-5.65-2.11-2.4-5.39-2.98-8.07-4.54-4.1-2.37-7.23-6.33-8.09-10.99-1.57-8.59-2.32-24.37-1.87-47.5.05-2.43 2.42-3.9 3.82-5.78 1.8-2.43 2.68 1.57 3.33 3.02 4.22 9.34 9.13 18.4 15.15 26.7 7.98 11.02 18.09 20.97 30.74 26.38 10.34 4.43 22.58 5.38 33 .6 7.52-3.46 12.78-10.8 14.31-18.83a31.65 31.65 0 0 0-4.96-23.81c-2.63-3.75-6.43-7.22-11.16-7.88-2.69-.37-4.88 2.13-4.7 4.69.21 2.87 2.86 4.59 4.68 6.48 4.53 4.7 6.51 12.18 3.8 18.3-1.93 4.35-7.09 5.92-11.51 5.66-9.03-.52-17.02-5.74-23.28-11.92-8.08-7.99-14.51-17.51-19.87-27.5a123.34 123.34 0 0 1-8.93-20.39c-.9-2.82 1.9-4.9 3.46-6.9 5.66-7.26 11.32-14.76 18.68-20.35 5.74-4.35 13.48-4.7 20.45-3.8 2.82.36 6.41-.17 7.82-3.04 1.19-2.43-.42-5.32-2.95-6.07-3.5-1.03-7.18-.67-10.76-.67-9.42.02-18.92-1.7-27.37-5.9-2.28-1.14-4.83-2.57-7.43-1.54-3.11 1.23-2.93 5.63-.66 7.67 2.57 2.3 6.03 4.44 6.62 8.09.62 3.88-2.34 7.1-4.49 10.04-5.82 8-12.72 15.15-19.21 22.6-2.86 3.28-7.7 13.9-8.75 9.69-3.6-14.57-1.9-30.1.16-45.03.53-3.9 3.95-6.73 7.53-8.13 2.37-.92 5.41-2.14 5.93-4.93.44-2.38-1.75-4.67-4.25-4.42zm432.04 10.7c-1.93-.12-4.41 1.79-5.78 4.1-2.21 3.74-3.29 7.98-4.74 12.03-1.52 4.24-3.32 8.5-6.39 11.87a21.25 21.25 0 0 1-7.46 5.27c-5.13 2.17-10.78 2.47-16.02 4.25-1.76.6-3.34 2.17-3.34 4.13 0 2.01 1.77 3.6 3.66 3.9 2.29.36 4.62.08 6.92-.03 2.21-.1 4.5-.9 6.63-.28.93.28-.05 1.82-.2 2.7-.68 3.84-1.95 7.55-2.8 11.36-2.49 11.02-4.54 22.29-3.86 33.63.38 6.39 1.7 12.82 4.72 18.51a29.09 29.09 0 0 0 10.23 11.27 32.14 32.14 0 0 0 17.75 4.72c4.13-.13 8.33-.76 12.09-2.56a24.67 24.67 0 0 0 12.24-12.57 34.64 34.64 0 0 0 2.58-11.03c.25-3.8-.7-7.88-3.4-10.71a9.49 9.49 0 0 0-6.41-2.87c-2.73-.13-5.61.58-7.58 2.58a10.03 10.03 0 0 0-1.88 11.15c1.04 2.16 2.86 3.72 4.41 5.47 1.04 1.17 2.1 2.68 1.78 4.37a7.14 7.14 0 0 1-2.69 4.56c-2.52 1.8-5.83 2-8.78 1.47a12.29 12.29 0 0 1-7.4-4.58c-2.74-3.5-4.07-7.86-4.9-12.16-1.19-6.17-1.03-12.5-.65-18.75.48-8.11 2.05-16.13 4.33-23.93 1.06-3.62 2.08-7.3 3.95-10.6a9.38 9.38 0 0 1 3.92-3.82c3-1.5 6.38-1.97 9.68-2.13 2.13-.1 4.55.12 6.26-1.4a4.24 4.24 0 0 0 .51-5.61c-1.22-1.59-3.31-2.07-5.22-1.99-3.49.15-6.94 1.23-10.42.98-.95-.07-.28-1.76-.21-2.6.2-2.85.89-5.64 1.54-8.4 1.16-4.92 2.76-9.8 2.9-14.88.07-2.2-.34-4.68-2.12-6.17-.84-.7-1.91-1.12-3.85-1.25zM219.24 22.5c-2.87-.17-4.93 2.7-4.97 5.44-.09 5.45.3 10.89.4 16.33.1 5.26-.19 10.5-.22 15.76-.02 1.72-.04 3.73 1.13 5.08 1.44 1.64 4.52 1.06 5.38-1.06 1.03-2.56 1.8-5.19 2.85-7.74 1.84-4.55 4.43-9.3 9.05-11.47 3.6-1.7 7.69-1.49 11.57-1.65 4.74-.2 9.7-.72 14.22.78 1.6.53-.9 2.87-1.57 4.05-3.7 6.6-8.5 12.53-13.23 18.43-2.2 2.74-4.77 5.24-6.44 8.34-1.08 2.02 1.04 3.95 2.85 4.8a80.5 80.5 0 0 1 14.24 8.82c6.77 5.12 12.35 12.48 13.57 21.04.87 6.1.01 12.6-3.02 18.01-3.06 5.46-9.25 8.63-15.43 8.98-9.4.52-19.1-3.36-25.09-10.68-5.32-6.5-7.69-14.8-9.55-22.86-.55-2.36-.46-5.17-2.39-6.93-1.57-1.43-3.95-.4-4.76 1.38a35.87 35.87 0 0 0-5.95-8.84c-5.81-6.3-13.2-11.03-21.07-14.31-2.66-1.1-5.48-1.76-8.18-2.73-2.22-.8.47-2.78 1.26-3.84 7.45-10.06 15.97-19.4 22.24-30.3 1.21-2.1 1.77-5.16-.13-7.05-1.96-1.94-4.94-1.7-7.48-1.87-12.17-.84-24.5-.7-36.44-3.54-4.25-1.01-8.51-2.08-12.89-2.35-2.87-.17-4.93 2.7-4.97 5.44-.09 5.45.3 10.88.4 16.33.1 5.26-.19 10.5-.22 15.76-.02 1.72-.04 3.73 1.13 5.08 1.44 1.64 4.52 1.06 5.38-1.06 1.03-2.56 1.8-5.2 2.85-7.75 1.84-4.55 4.43-9.29 9.05-11.46 3.6-1.7 7.69-1.49 11.57-1.65 4.74-.2 9.7-.72 14.21.78 1.6.52-.9 2.87-1.56 4.04-3.7 6.6-8.5 12.54-13.23 18.44-2.2 2.74-4.77 5.24-6.44 8.34-1.08 2.02 1.03 3.95 2.85 4.8a80.49 80.49 0 0 1 14.24 8.82c6.77 5.11 12.35 12.48 13.57 21.04.87 6.1 0 12.6-3.02 18-3.07 5.47-9.25 8.64-15.43 8.98-9.4.53-19.1-3.35-25.09-10.67-5.32-6.5-7.69-14.8-9.56-22.86-.54-2.37-.45-5.18-2.38-6.93-1.67-1.53-4.28-.27-4.91 1.71-.71 2.25-.67 4.65-.69 6.98a64.5 64.5 0 0 0 7.3 29.99c4.97 9.54 14.1 16.61 24.4 19.5a48.45 48.45 0 0 0 23.31.67c8.73-1.91 16.82-6.89 22.04-14.2a41.82 41.82 0 0 0 6.57-14.76 64.55 64.55 0 0 0 3.74 8.77c4.96 9.54 14.1 16.61 24.39 19.5a48.45 48.45 0 0 0 23.32.67c8.72-1.9 16.82-6.89 22.04-14.2 5.3-7.4 7.86-16.6 7.81-25.66-.04-9.62-3.36-19.34-9.93-26.46-5.81-6.3-13.2-11.04-21.07-14.32-2.66-1.1-5.48-1.76-8.18-2.73-2.22-.8.47-2.78 1.26-3.84 7.45-10.06 15.98-19.4 22.24-30.3 1.21-2.1 1.77-5.16-.13-7.05-1.96-1.94-4.94-1.7-7.48-1.87-12.17-.84-24.5-.7-36.44-3.54-4.25-1.01-8.51-2.08-12.89-2.35zm-90.86 3.91c-2.5.07-4.24 2.16-5.61 4.02-3.04 4.09-5.84 8.65-10.34 11.3-3.6 2.1-8 2.42-12.06 1.61-6.5-1.29-12.86-3.3-19.46-4.07-15.27-1.81-31.2 1.38-44.3 9.56C23.6 56.96 14.42 70.75 11.55 85.8c-2.01 10.54-1.86 21.67 1.72 31.85A46.1 46.1 0 0 0 31.58 141c8.58 5.52 18.79 8.2 28.94 8.23 9.67.03 19.43-1.9 28.1-6.2 4.17-2.07 7.96-4.87 12.24-6.7 2.57-1.11 5.63-.58 8 .94 2.16 1.38 4.47 3.13 7.15 2.93 2.2-.16 3.52-2.67 3.23-4.76-.37-2.6-.69-5.21-1.02-7.82-.95-7.39-2.05-14.82-1.73-22.3.09-2.14.25-4.42 1.32-6.33 1.1-1.96 3.27-2.94 5.31-3.7 1.84-.7 3.8-2.21 3.85-4.37.06-2.25-2.07-4.11-4.36-3.94-4.8.37-9.23 2.26-13.85 3.4a182.61 182.61 0 0 1-38.3 5.04c-2.8.08-5.15 3.12-4.38 5.92.5 1.83 2.2 3.05 4.04 3.34 5.67.89 13.62-2.4 20.23-.68 2.42.63 3.53 3.31 3.96 5.6 1.22 6.44.86 13.44-2.36 19.24-2.56 4.59-7.44 7.4-12.37 8.83a35.93 35.93 0 0 1-23.1-1.26c-6.16-2.47-10.67-7.92-13.39-13.86-4.03-8.8-5.52-18.57-5.43-28.19.08-7.96 1.26-15.98 3.99-23.48 3.02-8.32 8.95-15.74 16.89-19.86a33.89 33.89 0 0 1 19.04-3.46c5.72.6 11.7 1.84 16.25 5.54a17.1 17.1 0 0 1 6.1 11.77c.33 3.96-.43 7.89-.72 11.82-.17 2.32 1.36 4.91 3.82 5.25 2.31.32 4.37-1.35 5.41-3.3 1.64-3.1 2.66-6.49 3.87-9.78 2.88-7.8 6.1-15.6 10.9-22.45 3.1-4.43 6.55-8.66 8.88-13.56.92-1.94.49-4.72-1.52-5.87a4.22 4.22 0 0 0-2.2-.58zm799.16 6.98c-5.1-.08-10.31 1.5-14.23 4.85a31.9 31.9 0 0 0-7.86 9.77 64.63 64.63 0 0 0-3.04 6.97c-.32.86-.57 3.52-.82 2.63-1.01-3.68-.39-7.61-.23-11.42.06-1.62-.3-3.53-1.74-4.5-1.75-1.2-4.3-.5-5.52 1.18-.85 1.18-1.29 2.59-2.1 3.8-1 1.5-2.25 2.78-3.46 4.1a14.5 14.5 0 0 1-6.31 4.14c-2.64.83-5.4 1.04-8.11 1.53-1.71.32-3.4 1.65-3.61 3.48a4.3 4.3 0 0 0 3.09 4.57c2.58.68 5.26.06 7.85.51.83.15 1.26 1 1.5 1.72.73 2.15.91 4.45 1.15 6.7 1.64 15.68 2.97 31.4 4 47.12.19 2.7.43 5.42.33 8.13-.04 1.22-.2 2.58-1.03 3.52-1.15 1.28-2.95 1.68-4.53 2.23-2.43.85-5.06 1.13-7.37 2.27a4.4 4.4 0 0 0-2.2 5.05c.6 2.05 2.76 3.34 4.88 3.23 2.76-.14 5.42-.86 8.1-1.47 5.9-1.37 11.78-3.01 17.86-3.42 5.78-.39 11.57-.45 17.36-.71 1.53-.07 3.14-.5 4.22-1.67a4.14 4.14 0 0 0-.11-5.5c-.86-.9-2.12-1.17-3.3-1.2-1.77-.03-3.53.25-5.3.1-1.3-.1-2.84-.3-3.6-1.49-.9-1.4-1.13-3.09-1.44-4.68-.75-3.83-1.45-7.67-1.97-11.54-1.27-9.27-2.45-18.58-2.64-27.95-.14-7.01.18-14.09 1.8-20.94.95-4.06 2.05-8.11 3.8-11.9 1.62-3.54 4.03-6.84 7.42-8.86a10.87 10.87 0 0 1 6.83-1.56c1.44.17 3.17.25 4.1 1.42 3.19 4-2.7 5.32-5.52 6.5a10.8 10.8 0 0 0-6.4 8c-.47 2.87-.26 6.06 1.44 8.53 1.92 2.79 5.26 4.26 8.55 4.61a14.6 14.6 0 0 0 8.93-1.72 16.98 16.98 0 0 0 7.74-11.08 23.3 23.3 0 0 0-1.98-15.64c-2.28-4.3-6.5-7.36-11.15-8.64a21.47 21.47 0 0 0-5.38-.77zm-392.66 2.9c-17.18.33-34.06 5.65-51.32 4.02-3.67-.34-7.35-1.09-11.03-.83-2.96.21-4.63 4.2-2.27 6.23 2.97 2.55 7.25 2.6 10.29 5.11 3.66 3.03 5.08 7.77 5.56 12.35 2.01 19.2 3.04 38.56 2.05 57.85-.23 4.6-.3 9.25-1.2 13.77-2.19 10.89-9.01 20.46-17.74 27.2-2.06 1.59-4.65 3.71-4.16 6.69.43 2.66 3.52 3.9 5.82 2.85 2.84-1.3 4.97-3.68 7.36-5.62 6.65-5.42 13.5-10.66 21.18-14.56 10.48-5.32 21.8-8.7 33.24-11.25 11.01-2.46 22.26-5.88 31.17-13.13 8.29-6.75 13.63-16.66 15.72-27.1 2.57-12.84 2.03-26.6-3.21-38.69-4.03-9.28-11.51-17.13-20.96-21a51.58 51.58 0 0 0-20.5-3.9zm459.4 1.2c-2.29-.15-4.06 1.83-4.79 3.84-.55 1.54-1 4.06-3.47 3.24a35.54 35.54 0 0 0-25 .86c-6.63 2.85-11.98 8.61-13.96 15.59-1.8 6.3-1 13.2 2.04 18.97 2.59 4.91 6.05 9.3 9.62 13.52 3.79 4.49 8.02 8.56 11.87 13 3.44 3.94 6.91 7.91 9.3 12.62 2.6 5.11 5.1 10.66 4.5 16.55-.5 4.82-2.28 9.84-6.3 12.82-3.94 2.91-9.28 4.05-13.92 2.26-4.13-1.59-8.3-4.28-10.02-8.5a23.09 23.09 0 0 1-1.76-9.77c.2-4.03 1.48-7.93 3.06-11.64 1.08-2.55 2.24-5.2 2.25-8 0-2.5-2.58-4.66-5.07-4.05-2.82.7-4.25 3.5-5.46 5.87-2.2 4.31-4.34 8.7-7.32 12.54-3.4 4.39-6.76 8.84-10.87 12.6-1.91 1.75-4.03 3.49-5.19 5.84-1.16 2.37 1.11 5.37 3.72 5.29 2.78-.1 4.85-2.25 6.98-3.76 1.55-1.1 3.12-2.5 5.03-2.74 1.72-.2 2.7 1.65 3.8 2.73 3.3 3.24 6.45 6.69 10.42 9.15 4.7 2.9 9.92 5.05 15.46 5.45 6.86.49 14.04-.17 20.22-3.3a30.55 30.55 0 0 0 12.78-12.71c2.57-4.76 3.39-10.25 3.74-15.58.52-7.99-.94-16.34-5.37-23.15a106.62 106.62 0 0 0-10.12-12.88c-4.9-5.46-10.9-9.77-15.88-15.17-3.8-4.11-7.91-8.2-9.87-13.57-1.51-4.15-.63-9.24 2.65-12.23 2.75-2.5 6.92-3 10.44-2.07 2.48.66 5 2.1 6.02 4.6a22.4 22.4 0 0 1 1.62 9.1c-.06 2.76-.42 5.63.4 8.3.61 1.97 3.03 2.96 4.97 2.16 2.32-.96 2.96-3.58 3.23-5.8.37-3.14.44-6.32.99-9.45.66-3.8 1.19-7.63 2.07-11.38.62-2.7 1.95-5.5.9-8.28a4.36 4.36 0 0 0-3.7-2.86zM702.66 43.4c-.58-.02-1.15-.01-1.72 0-6.55.25-13.24 1.66-18.84 5.2a46.6 46.6 0 0 0-17.64 21.01 57.27 57.27 0 0 0-4.6 22.74c.02 5.21.9 10.4 2.18 15.43 1.13 4.4 3.04 8.6 5.67 12.32 3.74 5.3 8.69 9.95 14.84 12.23a40.8 40.8 0 0 0 23.02 1.55 29.53 29.53 0 0 0 13.12-6.63 28.82 28.82 0 0 0 9.29-16.9c.95-6.05.62-12.53-2.3-18-1.6-3-3.74-5.83-6.62-7.67-1.7-1.08-4.14-1.73-5.91-.48-1.6 1.13-1.72 3.45-.93 5.13.89 1.88 2.49 3.32 3.27 5.27.99 2.5 2.28 4.97 2.25 7.72-.04 4.2-.76 8.66-3.57 11.94-3.06 3.56-7.9 5.18-12.52 4.96-5.48-.26-11.02-2.3-14.74-6.44a32.39 32.39 0 0 1-5.88-8.8c-1.62-3.8-2.3-7.9-2.94-11.96a61.54 61.54 0 0 1 .41-21.08 31.03 31.03 0 0 1 5.52-12.62c2.17-2.93 5.84-4.92 9.56-4.52 1.96.22 3.19 2.05 3.57 3.84.93 4.34.06 9 2 13.13a13.43 13.43 0 0 0 11.97 7.54c3.9 0 8-1.36 10.43-4.55 3.62-4.76 4.34-11.35 2.47-16.93-1.58-4.72-5.45-8.32-9.79-10.56a26.63 26.63 0 0 0-11.57-2.87zm-179.58 2.96c8.13.22 17.33 3.3 23.32 11.53 6.92 9.52 8.92 21.64 8.33 33.12-.5 9.75-2.41 19.67-7.24 28.26-3.34 5.94-8.8 11.04-15.6 12.5-4.29.92-8.98 1-13.02-.76-4.9-2.15-7.13-7.6-8.12-12.59a199.94 199.94 0 0 1-2.89-22.85 375.31 375.31 0 0 1-1.3-32.73c.04-4.06-.05-8.28 1.4-12.08 1.1-2.84 4.8-3.18 7.52-3.74 2.3-.48 4.9-.73 7.6-.66zm98.67 10.1c-10.13-.05-20.59 3.08-28.07 10.1-7.57 7.1-11.41 17.5-11.75 27.74-.3 9.57 2.41 19.44 8.7 26.8 6.3 7.4 15.52 12.03 25.14 13.2 10.41 1.27 21.5-1.21 29.7-7.93 6.76-5.53 11.16-13.6 12.77-22.14a46.72 46.72 0 0 0-1.49-23.72c-2.95-8.6-9.2-16.16-17.45-20.15a40.98 40.98 0 0 0-17.55-3.9zm212.33.01c-10.13-.05-20.59 3.08-28.07 10.1-7.56 7.1-11.4 17.5-11.74 27.74-.32 9.57 2.4 19.44 8.69 26.8 6.3 7.4 15.53 12.03 25.14 13.2 10.42 1.26 21.5-1.21 29.7-7.93 6.76-5.53 11.16-13.6 12.78-22.14a46.72 46.72 0 0 0-1.5-23.72c-2.95-8.6-9.19-16.16-17.45-20.15a40.99 40.99 0 0 0-17.55-3.9zM620.65 64.3c4.81.16 8.94 3.35 11.39 7.3 4.07 6.55 5.34 14.32 6.16 21.85.75 6.82.86 13.88-1.05 20.5-4.37 15.14-18.05 12.02-22.88 5.42-3.2-4.38-5.07-9.58-6.28-14.82a66.97 66.97 0 0 1-1.26-22.53c1.47-12.86 8.25-17.9 13.92-17.72zm212.33 0c4.81.16 8.95 3.36 11.4 7.3 4.06 6.56 5.34 14.33 6.16 21.86.74 6.82.85 13.88-1.06 20.5-4.36 15.14-18.05 12.02-22.88 5.42-3.2-4.38-5.07-9.59-6.27-14.82a66.97 66.97 0 0 1-1.27-22.53c1.47-12.86 8.25-17.9 13.92-17.72z"/><text xml:space="preserve" style="font-size:157px;font-family:'Henny Penny';text-anchor:middle"><tspan x="511" y="145" style="fill:#eaeaea">G33K Doctors</tspan></text></svg>