<svg xmlns="http://www.w3.org/2000/svg" xml:space="preserve" width="1024" height="1024">
  <defs>
    <clipPath id="a" clipPathUnits="userSpaceOnUse">
      <path fill="#333" stroke-width=".9" d="M-3239.8 456.8a420 420 0 0 1-420 420 420 420 0 0 1-420-420 420 420 0 0 1 420-420 420 420 0 0 1 420 420z"/>
    </clipPath>
  </defs>
  <circle id="disc-blue-2" cx="512" cy="512" r="500" fill="#06f"/>
  <circle id="disc-blue-1" cx="512" cy="512" r="480" fill="#09f"/>
  <circle id="disc-black" cx="512" cy="512" r="460" fill="#1a1a1a"/>
  <circle id="disc-orange" cx="512" cy="512" r="450" fill="#f60"/>
  <circle id="disc-white" cx="512" cy="512" r="440" fill="#eaeaea"/>
  <circle id="disc-gray" cx="512" cy="512" r="430" fill="#ccc"/>
  <circle id="disc-dark" cx="512" cy="512" r="420" fill="#2a2a2a"/>
  <path id="disc-pattern" fill="#3a3a3a" d="M-3667 37.4a420 420 0 0 0-5 .3v12.4l-3.2 1.9-12 7-15.4-8.9V40a420 420 0 0 0-4.9.4V50l-3.2 2-12 6.9-15.4-8.9v-5a420 420 0 0 0-4.9 1.1v4l-2.2 1.2-13.1 7.6-11.9-6.9a420 420 0 0 0-28.8 9.5l2.7 1.6v17.7l-15.3 8.8-15.3-8.8V72a420 420 0 0 0-5 1.8v7l-15.2 8.8-7-4a420 420 0 0 0-5 2.7l10.3 6V112l-2.2 1.3-13 7.5-15.2-8.8V99.4a420 420 0 0 0-5.2 2.8v10l-1.9 1.1-13.1 7.6-6-3.5a420 420 0 0 0-4.3 3.2l7.8 4.5v17.7l-15.3 8.8-15.3-8.8v-5a420 420 0 0 0-4.9 4.2v.8l-1.8 1a420 420 0 0 0-16 16v13.7l-2.1 1.3-13.2 7.6-4.6-2.7a420 420 0 0 0-3.3 3.7l5.5 3.2v16.9l-16 9.2-8-4.6a420 420 0 0 0-3 4l8.6 4.9v17.6l-2.8 1.6-12.5 7.2-1.5-.8-9.1-5.3a420 420 0 0 0-2.3 4.3l10.4 6v17.7l-15.3 8.9-9.8-5.7a420 420 0 0 0-2.4 4.3l9.8 5.6v17.7l-2.2 1.2-13.2 7.6-6.6-3.8a420 420 0 0 0-1.7 4.6l6 3.4v17.7l-15.4 8.9-1.5-.9a420 420 0 0 0-1.6 4.8l1.4.7V358l-2.2 1.3-4 2.2a420 420 0 0 0-1.4 6.5l5.8-3.3 4.2-2.5 15.3 8.9v17.6l-15.3 8.9-14.6-8.5a420 420 0 0 0-1 5l13.2 7.7v17.7l-2.2 1.2-13.1 7.6-.8-.4a420 420 0 0 0-2 28.2l2.8-1.6 15.3 8.8V481l-2.2 1.3-13.1 7.5-.5-.2a420 420 0 0 0 2 27.3l13.8 8v17.6l-2.2 1.2-5.1 3a420 420 0 0 0 1 5l4.5-2.5 4.2-2.5 15.3 8.9v17.6l-15.2 8.9-1.3-.8a420 420 0 0 0 4.4 12v-6.6l15.3-8.8 15.4 8.8v17.7l-2.2 1.3-13.2 7.5-10-5.7a420 420 0 0 0 2.7 7.1l4.9 2.9v10.3a420 420 0 0 0 7.2 14.4l10.6 6v13.3a420 420 0 0 0 5.7 10.5l12 7v12.3a420 420 0 0 0 10.8 14.4l6.4 3.7v4.7a420 420 0 0 0 4.8 6.6V710l16-9.2 14.7 8.5v17.5l-2.2 1.3-13.1 7.6-7.1-4a420 420 0 0 0 9.5 9.5V740l11.6-6.6 3.7-2.2 15.3 8.8v17.7l-9 5.2a420 420 0 0 0 3.6 3.6l7.9-4.6 15.3 8.9v15a420 420 0 0 0 22.7 17v-1.3l11.5-6.7 3.6-2 15.2 8.7v17.8l-1.7 1a420 420 0 0 0 25.1 13.8v-1.4l15.3-8.9 15.4 8.9v14.4a420 420 0 0 0 4.9 1.8v-16.2l15.3-8.9 15.3 8.9v17.7l-2.2 1.2-8.3 4.8a420 420 0 0 0 6 2.2l2.7-1.6 4.2-2.4 15.4 8.8v.6a420 420 0 0 0 4.9 1v-1.6l11.5-6.6 3.8-2.2 7.2 4.2 8 4.6v8.3a420 420 0 0 0 5 1v-9.3l9.6-5.5 5.7-3.3 1.2.7 14.1 8.1v11.4a420 420 0 0 0 5 .4v-11.8l9.5-5.5 5.7-3.3 15.3 8.8v13a420 420 0 0 0 5-.4v-12.6l9-5.3 6.2-3.5 1.2.7 14.2 8.1v10.4a420 420 0 0 0 4.9-.4v-10l9.5-5.5 5.8-3.3 15.3 8.8v5.1a420 420 0 0 0 4.9-1v-4l9.2-5.4 6.1-3.5 1.2.7 10.8 6.2a420 420 0 0 0 28.8-9.5l-2.8-1.6v-17.7l15.3-8.9 15.3 8.9v9a420 420 0 0 0 4.9-2v-7l15.3-8.9 7.1 4.2a420 420 0 0 0 5-2.8l-10.4-6v-17.7l9.6-5.5 5.7-3.3 15.4 8.8v12.7a420 420 0 0 0 4.8-2.7v-10l9.2-5.3 6.2-3.5 1.1.6 4.8 2.8a420 420 0 0 0 4.3-3.2l-7.8-4.5v-17.6l15.3-8.9 15.3 8.9v5a420 420 0 0 0 5-4.4v-.6l1.4-.9a420 420 0 0 0 16.3-16.3V740l9.1-5.3 6.2-3.5 1.2.7 3.3 1.9a420 420 0 0 0 3.3-3.8l-5.3-3v-17l16-9.1 7.8 4.5a420 420 0 0 0 3-4l-8.4-4.8V679l9-5.3 6.1-3.5 10.6 6a420 420 0 0 0 2.4-4.3l-10.4-6v-17.7l15.2-8.7 9.8 5.6a420 420 0 0 0 2.3-4.3l-9.5-5.5v-18l9.3-5.3 5.7-3.4 1.2.7 5.5 3.2a420 420 0 0 0 1.7-4.7l-6-3.4v-17.7l15.4-8.8 1.5.9a420 420 0 0 0 1.6-4.8l-1.4-.8v-17.6l6.2-3.6a420 420 0 0 0 1.4-6.5l-10 5.8-15.4-8.8v-17.7l15.4-8.8 14.6 8.4a420 420 0 0 0 1-5l-13.2-7.7v-17.6l9.6-5.6 5.7-3.3.8.5a420 420 0 0 0 2-28.2l-2.8 1.6-5.4-3.1-9.9-5.8v-17.6l9.6-5.6 5.7-3.3 1.5.9a420 420 0 0 0-3-28l-13.8-7.9v-17.6l8.2-4.7a420 420 0 0 0-1.2-5l-9.4 5.4-15.4-8.8v-17.7l15.3-8.8 1.7 1a420 420 0 0 0-4.8-14.8v9.1l-15.3 8.9-15.1-8.8V309l9.3-5.4 5.7-3.3 1.2.7 10.1 5.8a420 420 0 0 0-2.8-7.3l-6-3.4v-10.5a420 420 0 0 0-6.4-13.7l-11.1-6.4v-14.7a420 420 0 0 0-5-8.9l-12.8-7.3v-12.7a420 420 0 0 0-9.2-13.2l-8-4.5v-5.8a420 420 0 0 0-4.8-6.2v11.3l-16 9.2-14.6-8.5v-17.6l9.1-5.3 6.2-3.5 1.2.6 4.8 2.8a420 420 0 0 0-8.5-9.5v1.8l-3.8 2.2-11.5 6.7-15.3-8.9V156l9.4-5.5a420 420 0 0 0-3.7-3.5l-8.1 4.7-15.4-8.8V127a420 420 0 0 0-22.6-16.7v1.6l-3.2 1.9-12.1 7-15.3-8.9V94.4l2.6-1.6a420 420 0 0 0-5.6-3.2l-.2.1-7.2-4.1a420 420 0 0 0-13-6.6v1.9l-15.3 8.8-15.4-8.8V65.7a420 420 0 0 0-4.9-2V81l-15.3 8.8-15.3-8.8V63.2l9.6-5.5 1.3-.8a420 420 0 0 0-6.2-2l-7.2 4-15.3-8.8v-1.3a420 420 0 0 0-4.9-1V50l-3.2 1.9-12 7-15.4-8.9v-8.3a420 420 0 0 0-4.9-.8V50l-3.2 1.9-12.1 7-15.3-8.9V38a420 420 0 0 0-5-.4v12.6l-3.1 1.9-12.1 7-15.4-8.9zm-109 17 15.2 8.8v17.7l-15.2 8.8-15.4-8.8V63.2l11.1-6.4zm35.4 0 7.3 4.1 8 4.7v17.7l-15.2 8.8-15.4-8.8V63.2l11.6-6.7zm35.6 0 1.2.6 14 8.2v17.7l-15.2 8.8-15.3-8.8V63.2l9.5-5.5zm35.5 0 15.3 8.8v17.7l-15.3 8.8-15.3-8.8V63.2l9.6-5.5zm35.5 0 1.2.6 14.1 8.2v17.7l-15.2 8.8-15.4-8.8V63.2l9.2-5.3zm35.6 0 15.3 8.8v17.7l-15.3 8.8-15.4-8.8V63.2l9.6-5.5zm35.5 0 1.2.6 14.1 8.2v17.7l-15.3 8.8-15.3-8.8V63.2l9.2-5.3zm-265.8 31.1 15.4 8.9V112l-2.2 1.3-13.1 7.6-15.3-8.9V94.4Zm35.6 0 15.3 8.9V112l-2.2 1.3-13 7.6-15.4-8.9V94.4Zm35.5 0 15.3 8.9V112l-2.1 1.3-13.2 7.6-15.3-8.9V94.4Zm35.5 0 15.4 8.9V112l-3.3 2-12 6.9-15.4-8.9V94.4Zm35.6 0 15.3 8.9V112l-3.2 1.9-12.1 7-15.3-8.9V94.4Zm35.5 0 15.3 8.9V112l-3.2 1.9-12 7-15.4-8.9V94.4Zm35.5 0 15.4 8.9V112l-3.3 1.9-12 7-15.4-8.9V94.4Zm35.5 0 15.4 8.9V112l-3.2 1.9-12.1 7-15.4-8.9V94.4Zm35.6 0 15.3 8.9V112l-3.2 1.9-12.1 7-15.3-8.9V94.4Zm35.5 0 15.3 8.9V112l-3.2 1.9-12 7-15.4-8.9V94.4Zm35.5 0 15.4 8.9V112l-3.2 1.9-12.2 7-15.3-8.9V94.4Zm-373 30.8 15.3 8.8v17.7l-15.3 8.8-15-8.7v-18l10.9-6.2zm35.5 0 15.4 8.8v17.7l-15.4 8.8-15.3-8.8V125l11.6-6.7zm35.6 0 15.3 8.8v17.7l-15.3 8.8-15.3-8.8V125l11-6.4zm35.5 0 7.2 4.2 8.1 4.6v17.7l-15.3 8.8-15.3-8.8V125l11.5-6.7zm35.5 0 1.2.7 14.1 8.1v17.7l-15.3 8.8-15.3-8.8V125l9.6-5.5zm35.5 0 15.4 8.8v17.7l-15.4 8.8-15.3-8.8V125l9.6-5.5zm35.6 0 1.2.7 14 8.1v17.7l-15.2 8.8-15.3-8.8V125l9.1-5.3zm35.5 0 15.3 8.8v17.7l-15.3 8.8-15.3-8.8V125l9.6-5.5zm35.5 0 1.2.7 14.1 8.1v17.7l-15.3 8.8-15.3-8.8V125l9.3-5.3zm35.6 0 15.3 8.8v17.7l-15.3 8.8-15.4-8.8V125l9.6-5.5zm35.5 0 1.2.7 14.1 8.1v17.7l-15.3 8.8-15.3-8.8V125l9.5-5.5zm35.5 0 15.3 8.8v17.7l-15.3 8.8-15.3-8.8V125l9.6-5.5zm35.5 0 1.2.7 14.2 8.1v17.7l-15.4 8.8-15.3-8.8V125l9.2-5.3zm-461.7 0 15.2 8.8v17.7l-15.2 8.7-15.2-8.7V125l11.6-6.7zm-53.1 30.7 15.3 8.9v17.6l-2.2 1.3-13.1 7.6-15.4-8.9V156Zm141.8 0 15.3 8.9v17.6l-2.2 1.3-13 7.6-15.4-8.9V156Zm-106.3 0 15 8.7v18l-1.9 1-13.1 7.7-15.3-8.9V156zm70.8 0 15.3 8.9v17.6l-2.2 1.3-13.1 7.6-15.3-8.9V156zm71 0 15.3 8.9v17.6l-2.1 1.3-13.2 7.6-15.3-8.9V156zm35.6 0 15.3 8.9v17.6l-3.3 2-12 6.9-15.4-8.9V156zm35.5 0 15.3 8.9v17.6l-3.2 1.9-12.1 7-15.3-8.9V156zm35.5 0 15.3 8.9v17.6l-3.2 1.9-12 7-15.4-8.9V156zm35.5 0 15.4 8.9v17.6l-3.3 1.9-12 7-15.4-8.9V156zm35.6 0 15.3 8.9v17.6l-3.2 1.9-12.1 7-15.4-8.9V156zm35.5 0 15.3 8.9v17.6l-3.2 1.9-12.1 7-15.3-8.9V156zm35.5 0 15.3 8.9v17.6l-3.2 1.9-12 7-15.4-8.9V156zm35.5 0 15.4 8.9v17.6l-3.2 1.9-12.2 7-15.3-8.9V156zm35.6 0 15.3 8.9v17.6l-3.2 1.9-12.1 7-15.3-8.9V156zm35.5 0 15.3 8.9v17.6l-3.2 1.9-12.1 7-15.3-8.9V156zm-461.7.1 15.2 8.8v17.6l-2.2 1.3-13 7.5-15.2-8.8V156zm-88.7 30.7 15.3 8.8v16.9l-16 9.2-14.6-8.5v-17.6l11.5-6.7zm35.5 0 15.3 8.8v16.9l-16 9.2-14.6-8.5v-17.6l11.1-6.4zm70.8 0 15.3 8.8v16.9l-16 9.2-14.3-8.4v-17.8l10.9-6.4zm35.5 0 15.4 8.8v16.9l-16 9.2-14.7-8.5v-17.6l11.6-6.7zm35.6 0 15.3 8.8v16.9l-16 9.2-14.6-8.5v-17.6l11-6.4zm35.5 0 7.2 4.1 8.1 4.7v16.9l-16 9.2-14.6-8.5v-17.6l11.5-6.7zm35.5 0 1.2.6 14.1 8.2v16.9l-16 9.2-14.6-8.5v-17.6l9.6-5.5zm35.5 0 15.4 8.8v16.9l-16 9.2-14.7-8.5v-17.6l9.6-5.5zm35.6 0 1.2.6 14 8.2v16.9l-15.9 9.2-14.6-8.5v-17.6l9.1-5.3zm35.5 0 15.3 8.8v16.9l-16 9.2-14.6-8.5v-17.6l9.6-5.5zm35.5 0 1.2.6 14.1 8.2v16.9l-15.9 9.2-14.7-8.5v-17.6l9.3-5.3zm35.6 0 15.3 8.8v16.9l-16 9.2-14.7-8.5v-17.6l9.6-5.5zm35.5 0 1.2.6 14.1 8.2v16.9l-16 9.2-14.6-8.5v-17.6l9.5-5.5zm35.5 0 15.3 8.8v16.9l-16 9.2-14.6-8.5v-17.6l9.6-5.5zm35.5 0 1.2.6 14.2 8.2v16.9l-16 9.2-14.7-8.5v-17.6l9.2-5.3zm35.6 0 15.3 8.8v16.9l-16 9.2-14.7-8.5v-17.6l9.6-5.5zm-497.3 0 15.2 8.8v16.9l-15.8 9.1-14.6-8.4v-17.6l11.6-6.7zm-88.7 30.7 14.7 8.5v17.6l-2.2 1.2-13.1 7.6-15.3-8.8v-16.9zm35.6 0 14.6 8.5v17.6l-2.1 1.2-13.2 7.6-15.3-8.8v-16.9zm35.5 0 14.4 8.4v17.8l-1.9 1.1-13.1 7.6-15.4-8.8v-16.9zm70.8 0 14.7 8.5v17.6l-2.2 1.2-13.2 7.6-15.3-8.8v-16.9zm35.5 0 14.7 8.5v17.6l-2.2 1.2-13.1 7.6-15.3-8.8v-16.9zm35.5 0 14.7 8.5v17.6l-2.2 1.2-13.1 7.6-15.3-8.8v-16.9zm35.6 0 14.6 8.5v17.6l-3.2 1.9-12 7-15.4-9v-16.8zm35.5 0 14.7 8.5v17.6l-3.2 1.8-12.1 7-15.4-8.8v-16.9zm35.5 0 14.7 8.5v17.6l-3.2 1.8-12.1 7-15.3-8.8v-16.9zm35.5 0 14.7 8.5v17.6l-3.2 1.8-12 7-15.4-8.8v-16.9zm35.6 0 14.7 8.5v17.6l-3.3 1.8-12 7-15.4-8.8v-16.9zm35.5 0 14.7 8.5v17.6l-3.2 1.8-12.1 7-15.4-8.8v-16.9zm35.5 0 14.7 8.5v17.6l-3.2 1.8-12.1 7-15.3-8.8v-16.9zm35.5 0 14.7 8.5v17.6l-3.2 1.8-12 7-15.4-8.8v-16.9zm35.6 0 14.7 8.5v17.6l-3.3 1.8-12 7-15.4-8.8v-16.9zm35.5 0 14.7 8.5v17.6l-3.2 1.8-12.1 7-15.4-8.8v-16.9zm35.5 0 14.7 8.5v17.6l-3.8 2.2-11.5 6.6-15.3-8.8v-16.9zm35.5 0 14.5 8.4v17.8l-3.1 1.8-12 7-15.3-9v-16.8zm-532.7 0 14.5 8.5v17.6l-2.2 1.3-13 7.5-15.1-8.8v-16.9zm-124.9 30.3 15.4 8.9v17.6l-15.4 8.9-15.3-8.9v-17.6l11.4-6.6zm35.6 0 15.3 8.9v17.6l-15.3 8.9-15.4-8.9v-17.6l11.6-6.7zm35.5 0 15.3 8.9v17.6l-15.3 8.9-15.3-8.9v-17.6l11-6.4zm70.8 0 15.3 8.9v17.6l-15.3 8.9-15-8.7v-18l10.9-6.3zm35.5 0 15.3 8.9v17.6l-15.3 8.9-15.3-8.9v-17.6l11.5-6.7zm35.5 0 15.4 8.9v17.6l-15.4 8.9-15.3-8.9v-17.6l11.1-6.4zm35.6 0 7.2 4.2 8 4.7v17.6l-15.2 8.9-15.4-8.9v-17.6l11.6-6.7zm35.5 0 1.2.7 14.1 8.2v17.6l-15.3 8.9-15.3-8.9v-17.6l9.5-5.6zm35.5 0 15.3 8.9v17.6l-15.3 8.9-15.3-8.9v-17.6l9.6-5.6zm35.5 0 1.2.7 14.2 8.2v17.6l-15.4 8.9-15.3-8.9v-17.6l9.2-5.3zm35.6 0 15.3 8.9v17.6l-15.3 8.9-15.4-8.9v-17.6l9.6-5.6zm35.5 0 1.2.7 14.1 8.2v17.6l-15.3 8.9-15.3-8.9v-17.6l9.2-5.4zm35.5 0 15.3 8.9v17.6l-15.3 8.9-15.3-8.9v-17.6l9.6-5.6zm35.6 0 1.1.7 14.2 8.2v17.6l-15.4 8.9-15.3-8.9v-17.6l9.6-5.6zm35.5 0 15.3 8.9v17.6l-15.3 8.9-15.3-8.9v-17.6l9.5-5.6zm35.5 0 1.2.7 14.1 8.2v17.6l-15.3 8.9-15.3-8.9v-17.6l9.1-5.3zm35.5 0 15.3 8.9v17.6l-15.3 8.9-15.3-8.9v-17.6l9.6-5.6zm35.6 0 1.1.7 14.2 8.2v17.6l-15.3 8.9-15.4-8.9v-17.6l9.2-5.3zm-532.8 0 15.2 8.9v17.6l-15.2 8.8-15.2-8.8v-17.6l11.5-6.7zm568.2 0 15.1 8.9v17.6l-15.1 8.8-15.2-8.8v-17.6l9-5.3zm-692.4 30.8 15.3 8.8v17.7l-2.8 1.6-12.5 7.2-1.5-.9-13.8-8v-17.6zm35.5 0 15.3 8.8v17.7l-2.2 1.2-13.1 7.6-15.3-8.8v-17.7zm35.5 0 15.3 8.8v17.7l-2.1 1.2-13.2 7.6-15.3-8.8v-17.7zm35.6 0 15 8.7v18l-1.9 1-13.1 7.6-15.4-8.8v-17.7zm70.7 0 15.4 8.8v17.7l-2.2 1.2-13.2 7.6-15.3-8.8v-17.7zm35.6 0 15.3 8.8v17.7l-2.2 1.2-13.1 7.6-15.3-8.8v-17.7zm35.5 0 15.3 8.8v17.7l-2.2 1.2-13.1 7.6-15.3-8.8v-17.7zm35.5 0 15.3 8.8v17.7l-3.2 1.9-12 7-15.4-9v-17.6zm35.6 0 15.3 8.8v17.7l-3.2 1.8-12.1 7-15.4-8.8v-17.7zm35.5 0 15.3 8.8v17.7l-3.2 1.8-12.1 7-15.3-8.8v-17.7zm35.5 0 15.3 8.8v17.7l-3.2 1.8-12 7-15.4-8.8v-17.7zm35.5 0 15.4 8.8v17.7l-3.3 1.8-12 7-15.4-8.8v-17.7zm35.6 0 15.3 8.8v17.7l-3.2 1.8-12.1 7-15.4-8.8v-17.7zm35.5 0 15.3 8.8v17.7l-3.2 1.8-12.1 7-15.3-8.8v-17.7zm35.5 0 15.3 8.8v17.7l-3.2 1.8-12 7-15.4-8.8v-17.7zm35.5 0 15.4 8.8v17.7l-3.3 1.8-12 7-15.4-8.8v-17.7zm35.6 0 15.3 8.8v17.7l-3.2 1.8-12.1 7-15.4-8.8v-17.7zm35.5 0 15.3 8.8v17.7l-3.8 2.2-11.5 6.6-15.3-8.8v-17.7zm35.5 0 15 8.7v18l-3 1.7-12 7-15.3-9v-17.6zm-532.7 0 15.1 8.8v17.7l-2.2 1.3-13 7.4-15.1-8.7v-17.7Zm568.1 0 15.2 8.8v17.7l-3.2 1.8-12 7-15.2-8.8v-17.7Zm-727.9 30.7 15.3 8.8v17.7l-15.3 8.9-15.3-8.9v-17.7l11.5-6.6zm35.5 0 15.4 8.8v17.7l-15.3 8.9-15.4-8.9v-17.7l11.4-6.5zm35.6 0 15.3 8.8v17.7l-15.3 8.9-15.4-8.9v-17.7l11.6-6.6zm35.5 0 15.3 8.8v17.7l-15.3 8.9-15.3-8.9v-17.7l11-6.4zm70.8 0 15.3 8.8v17.7l-15.3 8.9-15-8.8V309l10.9-6.3zm35.5 0 15.3 8.8v17.7l-15.3 8.9-15.3-8.9v-17.7l11.5-6.6zm35.5 0 15.4 8.8v17.7l-15.3 8.9-15.4-8.9v-17.7l11.1-6.4zm35.6 0 7.2 4.2 8 4.6v17.7l-15.2 8.9-15.4-8.9v-17.7l11.6-6.6zm35.5 0 1.2.7 14.1 8.1v17.7l-15.3 8.9-15.3-8.9v-17.7l9.5-5.5zm35.5 0 15.3 8.8v17.7l-15.3 8.9-15.3-8.9v-17.7l9.6-5.5zm35.5 0 1.2.7 14.2 8.1v17.7l-15.3 8.9-15.4-8.9v-17.7l9.2-5.2zm35.6 0 15.3 8.8v17.7l-15.3 8.9-15.4-8.9v-17.7l9.6-5.5zm35.5 0 1.2.7 14.1 8.1v17.7l-15.3 8.9-15.3-8.9v-17.7l9.2-5.3zm35.5 0 15.3 8.8v17.7l-15.2 8.9-15.4-8.9v-17.7l9.6-5.5zm35.6 0 1.1.7 14.2 8.1v17.7l-15.3 8.9-15.4-8.9v-17.7l9.6-5.5zm35.5 0 15.3 8.8v17.7l-15.3 8.9-15.3-8.9v-17.7l9.5-5.5zm35.5 0 1.2.7 14.1 8.1v17.7l-15.3 8.9-15.3-8.9v-17.7l9.1-5.2zm35.5 0 15.3 8.8v17.7l-15.2 8.9-15.4-8.9v-17.7l9.6-5.5zm35.6 0 1.1.7 14.2 8.1v17.7l-15.3 8.9-15.4-8.9v-17.7l9.2-5.2zm-532.8 0 15.2 8.8V327l-15 8.7-15.4-8.9v-17.7l11.5-6.6zm568.2 0 15.1 8.8V327l-15 8.7-15.3-8.9v-17.7l9-5.2zm-727.2 31.2 15.3 8.8V358l-2.2 1.2-13.1 7.6-15.3-8.8v-17.7zm35.5 0 15.3 8.8V358l-2.7 1.6-12.6 7.2-1.5-.8-13.8-8v-17.7zm35.5 0 15.4 8.8V358l-2.2 1.2-13.2 7.6-15.3-8.8v-17.7zm35.5 0 15.4 8.8V358l-2.2 1.2-13.1 7.6-15.3-8.8v-17.7zm35.6 0 15 8.7v18l-1.9 1-13.1 7.6-15.3-8.8v-17.7zm35.2 0 15.4 8.8V358l-2.2 1.3-13 7.5-15.2-8.8v-17.8Zm35.6 0 15.3 8.8V358l-2.2 1.2-13.1 7.6-15.3-8.8v-17.7zm35.5 0 15.3 8.8V358l-2.1 1.2-13.2 7.6-15.3-8.8v-17.7zm35.5 0 15.4 8.8V358l-2.2 1.2-13.2 7.6-15.3-8.8v-17.7zm35.5 0 15.4 8.8V358l-3.3 1.9-12 7-15.3-9v-17.6zm35.6 0 15.3 8.8V358l-3.2 1.8-12.1 7-15.3-8.8v-17.7zm35.5 0 15.3 8.8V358l-3.2 1.8-12 7-15.4-8.8v-17.7zm35.5 0 15.4 8.8V358l-3.2 1.8-12.1 7-15.4-8.8v-17.7zm35.6 0 15.3 8.8V358l-3.2 1.8-12.1 7-15.3-8.8v-17.7zm35.5 0 15.3 8.8V358l-3.2 1.8-12 7-15.4-8.8v-17.7zm35.5 0 15.4 8.8V358l-3.3 1.8-12 7-15.4-8.8v-17.7zm35.5 0 15.4 8.8V358l-3.2 1.8-12.1 7-15.4-8.8v-17.7zm35.6 0 15.3 8.8V358l-3.2 1.8-12.1 7-15.3-8.8v-17.7zm35.5 0 15.3 8.8V358l-3.2 1.8-12 7-15.4-8.8v-17.7zm35.5 0 15.4 8.8V358l-3.9 2.2-11.5 6.6-15.3-8.8v-17.7zm35.5 0 15.1 8.7v18l-3 1.7-12 7-15.4-9v-17.6zm35.3 0 15.4 8.8V358l-3.2 1.8-12 7-15.2-8.8v-17.8Zm-727.7 30.7 15.3 8.9v17.6l-15.3 8.9-15.4-8.9v-17.6l11.6-6.7zm35.5 0 15.3 8.9v17.6l-15.3 8.9-15.3-8.9v-17.6l11.4-6.6zm35.5 0 15.3 8.9v17.6l-15.3 8.9-15.3-8.9v-17.6l11.5-6.7zm35.5 0 15.4 8.9v17.6l-15.4 8.9-15.3-8.9v-17.6l11.1-6.4zm70.8 0 15.4 8.9v17.6l-15.4 8.9-15-8.7v-18l10.9-6.3zm35.6 0 15.3 8.9v17.6l-15.3 8.9-15.4-8.9v-17.6l11.6-6.7zm35.5 0 15.3 8.9v17.6l-15.3 8.9-15.3-8.9v-17.6l11-6.4zm35.5 0 7.3 4.2 8 4.7v17.6l-15.3 8.9-15.3-8.9v-17.6l11.5-6.7zm35.5 0 1.2.7 14.2 8.2v17.6l-15.4 8.9-15.3-8.9v-17.6l9.6-5.6zm35.6 0 15.3 8.9v17.6l-15.3 8.9-15.4-8.9v-17.6l9.6-5.6zm35.5 0 1.2.7 14.1 8.2v17.6l-15.3 8.9-15.3-8.9v-17.6l9.1-5.3zm35.5 0 15.3 8.9v17.6l-15.3 8.9-15.3-8.9v-17.6l9.6-5.6zm35.5 0 1.2.7 14.2 8.2v17.6l-15.4 8.9-15.3-8.9v-17.6l9.3-5.4zm35.6 0 15.3 8.9v17.6l-15.3 8.9-15.3-8.9v-17.6l9.5-5.6zm35.5 0 1.2.7 14.1 8.2v17.6l-15.3 8.9-15.3-8.9v-17.6l9.5-5.6zm35.5 0 15.3 8.9v17.6l-15.3 8.9-15.3-8.9v-17.6l9.6-5.6zm35.5 0 1.2.7 14.2 8.2v17.6l-15.4 8.9-15.3-8.9v-17.6l9.2-5.3zm35.6 0 15.3 8.9v17.6l-15.3 8.9-15.3-8.9v-17.6l9.5-5.6zm35.5 0 1.2.7 14.1 8.2v17.6l-15.3 8.9-15.3-8.9v-17.6l9.1-5.3zm70.8 0 1.2.7 14.1 8.2v17.6l-15.3 8.9-15-8.7v-18l9.3-5.4zm-603.6 0 15.2 8.9v17.6l-15.2 8.8-15.2-8.8v-17.6l11.6-6.7zm568.2 0 15.2 8.9v17.6l-15.2 8.8-15.2-8.8v-17.6l9.1-5.3zm-728 30.8 15.4 8.8v17.7l-2.2 1.2-13.1 7.6-15.3-8.8v-17.7zm35.6 0 15.3 8.8v17.7l-2.7 1.6-12.6 7.2-1.5-.8-13.8-8v-17.7zm35.5 0 15.4 8.8v17.7l-2.2 1.2-13.2 7.6-15.3-8.8v-17.7zm35.6 0 15.3 8.8v17.7l-2.2 1.2-13.1 7.6-15.3-8.8v-17.7zm35.5 0 15 8.7v18l-1.9 1-13.1 7.6-15.3-8.8v-17.7zm70.8 0 15.3 8.8v17.7l-2.2 1.2-13.1 7.6-15.3-8.8v-17.7zm35.5 0 15.3 8.8v17.7l-2.1 1.2-13.2 7.6-15.3-8.8v-17.7zm35.5 0 15.4 8.8v17.7l-2.2 1.2-13.2 7.6-15.3-8.8v-17.7zm35.6 0 15.3 8.8v17.7l-3.3 1.9-12 7-15.3-9v-17.6zm142 0 15.4 8.8v17.7l-3.2 1.8-12.1 7-15.3-8.8v-17.7zm-106.5 0 15.3 8.8v17.7l-3.2 1.8-12.1 7-15.3-8.8v-17.7zm35.5 0 15.3 8.8v17.7l-3.2 1.8-12 7-15.4-8.8v-17.7zm35.6 0 15.3 8.8v17.7l-3.2 1.8-12.1 7-15.4-8.8v-17.7zm71 0 15.3 8.8v17.7l-3.2 1.8-12 7-15.4-8.8v-17.7zm35.5 0 15.4 8.8v17.7l-3.3 1.8-12 7-15.4-8.8v-17.7zm35.6 0 15.3 8.8v17.7l-3.2 1.8-12.1 7-15.4-8.8v-17.7zm35.5 0 15.3 8.8v17.7l-3.2 1.8-12.1 7-15.3-8.8v-17.7zm35.5 0 15.3 8.8v17.7l-3.2 1.8-12 7-15.4-8.8v-17.7zm35.5 0 15.4 8.8v17.7l-3.9 2.2-11.5 6.6-15.3-8.8v-17.7zm35.6 0 15 8.7v18l-3 1.7-12 7-15.4-9v-17.6zm70.8 0 15.3 8.8v17.7l-3.2 1.8-12.1 7-15.4-8.8v-17.7zm-603.6 0 15.2 8.8v17.7l-2.2 1.3-13 7.4-15.2-8.7v-17.7zm568.2 0 15.2 8.8v17.7l-3.2 1.8-12 7-15.2-8.8v-17.7zm-763.5 30.7 15.3 8.9v17.6l-15.3 8.9-2.4-1.4-12.9-7.5v-17.6l11.1-6.5zm35.6 0 15.3 8.9v17.6l-7.4 4.3-8 4.6-1.5-1-13.8-7.9v-17.6l11.6-6.7zm35.5 0 15.3 8.9v17.6l-15.3 8.9-2.5-1.4-12.8-7.5v-17.6l11.4-6.6zm35.5 0 15.3 8.9v17.6l-7.4 4.3-7.9 4.6-1.6-1-13.7-7.9v-17.6l11.5-6.7zm35.5 0 15.4 8.9v17.6l-15.4 8.9-2.4-1.4-12.9-7.5v-17.6l11.1-6.5zm70.8 0 15.4 8.9v17.6l-15.4 8.9-2.6-1.6-12.4-7.1v-18l10.9-6.3zm35.6 0 15.3 8.9v17.6l-7.4 4.3-8 4.6-1.5-1-13.8-7.9v-17.6l11.6-6.7zm35.5 0 15.3 8.9v17.6l-15.3 8.9-2.5-1.4-12.8-7.5v-17.6l11-6.5zm35.5 0 7.3 4.2 8 4.7v17.6l-15.3 8.9-2-1.2-13.3-7.7v-17.6l11.5-6.7zm35.5 0 1.2.7 14.2 8.2v17.6l-15.4 8.9-5.2-3-10-5.9v-17.6l9.5-5.6zm35.6 0 15.3 8.9v17.6l-6.4 3.7-9 5.2-4.5-2.6-10.8-6.3v-17.6l9.6-5.6zm35.5 0 1.2.7 14.1 8.2v17.6l-15.3 8.9-5.2-3-10.1-5.9v-17.6l9.1-5.3zm35.5 0 15.3 8.9v17.6l-15.3 8.9-4.4-2.5-11-6.4v-17.6l9.7-5.6zm35.5 0 1.2.7 14.2 8.2v17.6l-15.4 8.9-5.2-3-10-5.9v-17.6l9.2-5.4zm35.6 0 15.3 8.9v17.6l-5.3 3.1-10 5.8-5.4-3.1-10-5.8v-17.6l9.6-5.6zm35.5 0 1.2.7 14.1 8.2v17.6l-15.3 8.9-5.2-3-10.1-5.9v-17.6l9.5-5.6zm35.5 0 15.3 8.9v17.6l-6.3 3.7-9 5.2-4.5-2.6-10.8-6.3v-17.6l9.6-5.6zm35.5 0 1.2.7 14.2 8.2v17.6l-15.4 8.9-5.2-3-10-5.9v-17.6l9-5.3zm35.6 0 15.3 8.9v17.6l-5.3 3.1-10 5.8-5.4-3.1-10-5.8v-17.6l9.6-5.6zm35.5 0 1.2.7 14.1 8.2v17.6l-15.3 8.9-3.6-2.1-11.7-6.8v-17.6l9.1-5.3zm70.8 0 1.2.7 14.1 8.2v17.6l-15.3 8.9-5.3-3-9.8-5.7v-18l9.4-5.4zm-603.6 0 15.2 8.9v17.6l-15.2 8.8-1-.6-14.2-8.2v-17.6l11.6-6.7zm568.2 0 15.2 8.9v17.6l-15.2 8.8-3.6-2.1-11.6-6.7v-17.6l9.1-5.3zm-728 30.8 15.4 8.8V481l-2.2 1.3-13.1 7.5-15.3-8.8v-17.7zm35.6 0 15.3 8.8V481l-2.7 1.6-12.6 7.2-1.5-.8-13.8-8v-17.7l3.3-1.9zm35.5 0 15.4 8.8V481l-2.2 1.3-13.2 7.5-15.3-8.8v-17.7zm35.6 0 15.3 8.8V481l-2.2 1.3-13.1 7.5-15.3-8.8v-17.7l2-1.2zm35.5 0 15 8.7v18l-1.9 1-13.1 7.6-15.3-8.8v-17.7zm70.8 0 15.3 8.8V481l-2.2 1.3-13.1 7.5-15.3-8.8v-17.7zm35.5 0 15.3 8.8V481l-2.1 1.3-13.2 7.5-15.3-8.8v-17.7l2.1-1.2zm35.5 0 15.4 8.8V481l-2.2 1.3-13.2 7.5-15.3-8.8v-17.7zm35.6 0 15.3 8.8V481l-3.3 1.9-12 7-15.3-8.9v-17.7zm35.5 0 15.3 8.8V481l-3.2 1.9-12.1 7-15.3-8.9v-17.7zm35.5 0 15.3 8.8V481l-3.2 1.9-12 7-15.4-8.9v-17.7l2.1-1.2zm35.5 0 15.4 8.8V481l-3.2 1.9-12.1 7-15.4-8.9v-17.7zm35.6 0 15.3 8.8V481l-3.2 1.9-12.1 7-15.3-8.9v-17.7Zm35.5 0 15.3 8.8V481l-3.2 1.9-12 7-15.4-8.9v-17.7zm35.5 0 15.4 8.8V481l-3.3 1.9-12 7-15.4-8.9v-17.7l3-1.7zm35.6 0 15.3 8.8V481l-3.2 1.9-12.1 7-15.4-8.9v-17.7zm35.5 0 15.3 8.8V481l-3.2 1.9-12.1 7-15.3-8.9v-17.7l2-1.2zm35.5 0 15.3 8.8V481l-3.2 1.9-12 7-15.4-8.9v-17.7zm35.5 0 15.4 8.8V481l-3.9 2.2-11.5 6.6-15.3-8.8v-17.7l3.3-1.9zm35.6 0 15 8.7v18l-3 1.7-12 7-15.4-8.9v-17.7zm70.8 0 15.3 8.8V481l-3.2 1.9-12.1 7-15.4-8.9v-17.7zm-603.6 0 15.2 8.8V481l-2.2 1.3-13 7.5-15.2-8.8v-17.7zm568.2 0 15.2 8.8V481l-3.2 1.8-12 7-15.2-8.8v-17.7zm-763.5 30.7 15.3 8.9v17.6l-15.3 8.9-15.3-8.9v-17.6l11.1-6.4zm35.6 0 15.3 8.9v17.6l-15.3 8.9-15.4-8.9v-17.6l11.6-6.7zm35.5 0 15.3 8.9v17.6l-15.3 8.9-15.3-8.9v-17.6l11.4-6.6zm35.5 0 15.3 8.9v17.6l-15.3 8.9-15.3-8.9v-17.6l11.5-6.7zm35.5 0 15.4 8.9v17.6l-15.4 8.9-15.3-8.9v-17.6l11.1-6.4zm70.8 0 15.4 8.9v17.6l-15.4 8.9-15-8.7v-18l10.9-6.3zm35.6 0 15.3 8.9v17.6l-15.3 8.9-15.4-8.9v-17.6l11.6-6.7zm35.5 0 15.3 8.9v17.6l-15.3 8.9-15.3-8.9v-17.6l11-6.4zm35.5 0 7.3 4.2 8 4.7v17.6l-15.3 8.9-15.3-8.9v-17.6l11.5-6.7zm35.5 0 1.2.7 14.2 8.2v17.6l-15.4 8.9-15.3-8.9v-17.6l9.6-5.6zm35.6 0 15.3 8.9v17.6l-15.3 8.9-15.4-8.9v-17.6l9.6-5.6zm35.5 0 1.2.7 14.1 8.2v17.6l-15.3 8.9-15.3-8.9v-17.6l9.1-5.3zm35.5 0 15.3 8.9v17.6l-15.3 8.9-15.3-8.9v-17.6l9.6-5.6zm35.5 0 1.2.7 14.2 8.2v17.6l-15.4 8.9-15.3-8.9v-17.6l9.3-5.4zm35.6 0 15.3 8.9v17.6l-15.3 8.9-15.3-8.9v-17.6l9.5-5.6zm35.5 0 1.2.7 14.1 8.2v17.6l-15.3 8.9-15.3-8.9v-17.6l9.5-5.6zm35.5 0 15.3 8.9v17.6l-15.3 8.9-15.3-8.9v-17.6l9.6-5.6zm35.5 0 1.2.7 14.2 8.2v17.6l-15.4 8.9-15.3-8.9v-17.6l9.2-5.3zm35.6 0 15.3 8.9v17.6l-15.3 8.9-15.3-8.9v-17.6l9.5-5.6zm35.5 0 1.2.7 14.1 8.2v17.6l-15.3 8.9-15.3-8.9v-17.6l9.1-5.3zm70.8 0 1.2.7 14.1 8.2v17.6l-15.3 8.9-15-8.7v-18l9.3-5.4zm-603.6.1 15.2 8.8v17.6l-15.2 8.8-15.2-8.8v-17.6l11.6-6.7zm568.2 0 15.2 8.8v17.6l-15.2 8.8-15.2-8.8v-17.6l9.1-5.3zm-728 30.7 15.4 8.8v17.7l-2.2 1.2-13.1 7.6-15.3-8.8v-17.7zm35.6 0 15.3 8.8v17.7l-2.7 1.6-12.6 7.2-1.5-.8-13.8-8v-17.7zm35.5 0 15.4 8.8v17.7l-2.2 1.2-13.2 7.6-15.3-8.8v-17.7zm35.6 0 15.3 8.8v17.7l-2.2 1.2-13.1 7.6-15.3-8.8v-17.7zm35.5 0 15 8.7v18l-1.9 1-13.1 7.6-15.3-8.8v-17.7zm70.8 0 15.3 8.8v17.7l-2.2 1.2-13.1 7.6-15.3-8.8v-17.7zm35.5 0 15.3 8.8v17.7l-2.1 1.2-13.2 7.6-15.3-8.8v-17.7zm35.5 0 15.4 8.8v17.7l-2.2 1.2-13.2 7.6-15.3-8.8v-17.7zm35.6 0 15.3 8.8v17.7l-3.3 1.9-12 7-15.3-9v-17.6zm142 0 15.4 8.8v17.7l-3.2 1.8-12.1 7-15.3-8.8v-17.7zm-106.5 0 15.3 8.8v17.7l-3.2 1.8-12.1 7-15.3-8.8v-17.7Zm35.5 0 15.3 8.8v17.7l-3.2 1.8-12 7-15.4-8.8v-17.7zm35.6 0 15.3 8.8v17.7l-3.2 1.8-12.1 7-15.4-8.8v-17.7Zm71 0 15.3 8.8v17.7l-3.2 1.8-12 7-15.4-8.8v-17.7Zm35.5 0 15.4 8.8v17.7l-3.3 1.8-12 7-15.4-8.8v-17.7zm35.6 0 15.3 8.8v17.7l-3.2 1.8-12.1 7-15.4-8.8v-17.7Zm35.5 0 15.3 8.8v17.7l-3.2 1.8-12.1 7-15.3-8.8v-17.7zm35.5 0 15.3 8.8v17.7l-3.2 1.8-12 7-15.4-8.8v-17.7Zm35.5 0 15.4 8.8v17.7l-3.9 2.2-11.5 6.6-15.3-8.8v-17.7zm35.6 0 15 8.7v18l-3 1.7-12 7-15.4-9v-17.6Zm-532.8 0 15.2 8.8v17.7l-2.2 1.3-13 7.5-15.2-8.8v-17.7zm568.2 0 15.2 8.8v17.7l-3.2 1.8-12 7-15.2-8.8v-17.7zm-728 30.7 15.4 8.9v17.6l-15.3 8.9-15.4-8.9v-17.6l11.6-6.7zm35.6 0 15.3 8.9v17.6l-15.3 8.9-15.3-8.9v-17.6l11.4-6.6zm35.5 0 15.3 8.9v17.6l-15.3 8.9-15.3-8.9v-17.6l11.5-6.7zm35.5 0 15.4 8.9v17.6l-15.3 8.9-15.4-8.9v-17.6l11.1-6.4zm70.8 0 15.4 8.9v17.6l-15.3 8.9-15.1-8.7v-18l10.9-6.3zm35.6 0 15.3 8.9v17.6l-15.3 8.9-15.4-8.9v-17.6l11.6-6.7zm35.5 0 15.3 8.9v17.6l-15.3 8.9-15.3-8.9v-17.6l11-6.4zm35.5 0 7.3 4.2 8 4.7v17.6l-15.3 8.9-15.3-8.9v-17.6l11.5-6.7zm35.5 0 1.2.7 14.2 8.2v17.6l-15.3 8.9-15.4-8.9v-17.6l9.6-5.6zm35.6 0 15.3 8.9v17.6l-15.3 8.9-15.4-8.9v-17.6l9.6-5.6zm35.5 0 1.2.7 14.1 8.2v17.6l-15.3 8.9-15.3-8.9v-17.6l9.1-5.3zm35.5 0 15.3 8.9v17.6l-15.3 8.9-15.3-8.9v-17.6l9.6-5.6zm35.5 0 1.2.7 14.2 8.2v17.6l-15.3 8.9-15.4-8.9v-17.6l9.3-5.4zm35.6 0 15.3 8.9v17.6l-15.3 8.9-15.3-8.9v-17.6l9.5-5.6zm35.5 0 1.2.7 14.1 8.2v17.6l-15.3 8.9-15.3-8.9v-17.6l9.5-5.6zm35.5 0 15.3 8.9v17.6l-15.2 8.9-15.4-8.9v-17.6l9.6-5.6zm35.5 0 1.2.7 14.2 8.2v17.6l-15.3 8.9-15.4-8.9v-17.6l9.2-5.3zm35.6 0 15.3 8.9v17.6l-15.3 8.9-15.3-8.9v-17.6l9.5-5.6zm35.5 0 1.2.7 14.1 8.2v17.6l-15.3 8.9-15.3-8.9v-17.6l9.1-5.3zm70.8 0 1.2.7 14.1 8.2v17.6l-15.3 8.9-15-8.7v-18l9.3-5.4zm-603.6 0 15.2 8.9v17.8l-15 8.7-15.4-8.9v-17.6l11.6-6.7zm568.2 0 15.2 8.9v17.8l-15 8.7-15.4-8.9v-17.6l9.1-5.3zm-691.7 31.2 15.4 8.8v17.7l-2.8 1.6-12.5 7.2-1.5-.8-13.8-8v-17.7Zm35.6 0 15.3 8.8v17.7l-2.2 1.3-13.1 7.5-15.3-8.8v-17.7zm35.5 0 15.3 8.8v17.7l-2.1 1.3-13.2 7.5-15.3-8.8v-17.7Zm35.5 0 15.1 8.7v18l-2 1-13 7.6-15.4-8.8v-17.7zm35.3 0 15.3 8.8v17.7l-2.2 1.3-13 7.5-15.2-8.8v-17.8zm35.5 0 15.4 8.8v17.7l-2.2 1.3-13.2 7.5-15.3-8.8v-17.7zm35.5 0 15.4 8.8v17.7l-2.2 1.3-13.1 7.5-15.3-8.8v-17.7Zm35.6 0 15.3 8.8v17.7l-2.2 1.3-13.1 7.5-15.3-8.8v-17.7zm35.5 0 15.3 8.8v17.7l-3.2 1.9-12 7-15.4-8.9v-17.7zm35.5 0 15.4 8.8v17.7l-3.2 1.9-12.2 7-15.3-8.9v-17.7zm35.5 0 15.4 8.8v17.7l-3.2 1.9-12.1 7-15.3-8.9v-17.7Zm35.6 0 15.3 8.8v17.7l-3.2 1.9-12.1 7-15.3-8.9v-17.7zm35.5 0 15.3 8.8v17.7l-3.2 1.9-12 7-15.4-8.9v-17.7Zm35.5 0 15.4 8.8v17.7l-3.2 1.9-12.1 7-15.4-8.9v-17.7zm35.6 0 15.3 8.8v17.7l-3.2 1.9-12.1 7-15.3-8.9v-17.7Zm35.5 0 15.3 8.8v17.7l-3.2 1.9-12 7-15.4-8.9v-17.7zm35.5 0 15.4 8.8v17.7l-3.3 1.9-12 7-15.4-8.9v-17.7Zm35.5 0 15.4 8.8v17.7l-3.2 1.9-12.1 7-15.4-8.9v-17.7zm35.6 0 15.3 8.8v17.7l-3.8 2.2-11.5 6.6-15.3-8.8v-17.7Zm35.5 0 15 8.7v18l-3 1.8-12 6.8-15.3-8.8v-17.7zm35.3 0 15.3 8.8v17.7l-3.2 1.8-12 7-15.2-8.8v-17.8zm-727.8 30.7 15.3 8.9V635l-15.3 8.9-15.3-8.9v-17.6l11.5-6.7zm35.5 0 15.3 8.9V635l-15.3 8.9-15.3-8.9v-17.6l11.4-6.6zm35.6 0 15.3 8.9V635l-15.3 8.9-15.4-8.9v-17.6l11.6-6.7zm35.5 0 15.3 8.9V635l-15.3 8.9-15.3-8.9v-17.6l11-6.4zm70.8 0 15.3 8.9V635l-15.3 8.9-15-8.7v-18l10.8-6.3zm35.5 0 15.3 8.9V635l-15.3 8.9-15.3-8.9v-17.6l11.5-6.7zm35.5 0 15.3 8.9V635l-15.3 8.9-15.3-8.9v-17.6l11.1-6.4zm35.6 0 7.2 4.2 8 4.7V635l-15.2 8.9-15.4-8.9v-17.6l11.6-6.7zm35.5 0 1.2.7 14.1 8.2V635l-15.3 8.9-15.3-8.9v-17.6l9.5-5.5zm35.5 0 15.3 8.9V635l-15.3 8.9-15.3-8.9v-17.6l9.6-5.6zm35.5 0 1.2.7 14.2 8.2V635l-15.4 8.9-15.3-8.9v-17.6l9.2-5.3zm35.6 0 15.3 8.9V635l-15.3 8.9-15.4-8.9v-17.6l9.6-5.6zm35.5 0 1.2.7 14.1 8.2V635l-15.3 8.9-15.3-8.9v-17.6l9.2-5.4zm35.5 0 15.3 8.9V635l-15.3 8.9-15.3-8.9v-17.6l9.6-5.6zm35.5 0 1.2.7 14.2 8.2V635l-15.4 8.9-15.3-8.9v-17.6l9.6-5.5zm35.6 0 15.3 8.9V635l-15.3 8.9-15.3-8.9v-17.6l9.5-5.6zm35.5 0 1.2.7 14.1 8.2V635l-15.3 8.9-15.3-8.9v-17.6l9.1-5.3zm35.5 0 15.3 8.9V635l-15.3 8.9-15.3-8.9v-17.6l9.6-5.6zm35.5 0 1.2.7 14.2 8.2V635l-15.4 8.9-15.3-8.9v-17.6l9.2-5.3zm-532.7.1 15.2 8.8V635l-15.2 8.8-15.2-8.8v-17.6l11.5-6.7zm568.1 0 15.2 8.8V635l-15.2 8.8-15.1-8.8v-17.6l9-5.3zm-692.3 30.7 15.3 8.8V666l-2.8 1.6-12.5 7.2-1.5-.8-13.8-8v-17.7zm35.5 0 15.3 8.8V666l-2.2 1.2-13.1 7.6-15.3-8.8v-17.7zm35.5 0 15.3 8.8V666l-2.1 1.2-13.2 7.6-15.3-8.8v-17.7zm35.5 0 15.1 8.7v18l-2 1-13 7.6-15.4-8.8v-17.7zm70.8 0 15.4 8.8V666l-2.2 1.2-13.2 7.6-15.3-8.8v-17.7zm35.6 0 15.3 8.8V666l-2.2 1.2-13.1 7.6-15.3-8.8v-17.7zm35.5 0 15.3 8.8V666l-2.2 1.2-13.1 7.6-15.3-8.8v-17.7zm35.5 0 15.3 8.8V666l-3.2 1.9-12 7-15.4-9v-17.6zm142.1 0 15.3 8.8V666l-3.2 1.8-12 7-15.4-8.8v-17.7zm-106.6 0 15.4 8.8V666l-3.2 1.8-12.2 7-15.3-8.8v-17.7zm35.6 0 15.3 8.8V666l-3.2 1.8-12.1 7-15.3-8.8v-17.7zm35.5 0 15.3 8.8V666l-3.2 1.8-12.1 7-15.3-8.8v-17.7zm71 0 15.4 8.8V666l-3.2 1.8-12.1 7-15.4-8.8v-17.7zm35.6 0 15.3 8.8V666l-3.2 1.8-12.1 7-15.3-8.8v-17.7zm35.5 0 15.3 8.8V666l-3.2 1.8-12 7-15.4-8.8v-17.7zm35.5 0 15.4 8.8V666l-3.3 1.8-12 7-15.4-8.8v-17.7zm35.6 0 15.3 8.8V666l-3.2 1.8-12.1 7-15.4-8.8v-17.7zm35.5 0 15.3 8.8V666l-3.8 2.2-11.5 6.6-15.3-8.8v-17.7zm35.5 0 15 8.7v18l-3 1.7-12 7-15.3-9v-17.6zm-532.8 0 15.2 8.8V666l-2.2 1.3-13 7.5-15.2-8.8v-17.7Zm-124.2 30.7 15.3 8.9v16.8l-15.9 9.2-14.7-8.4V679l11.4-6.6zm35.6 0 15.3 8.9v16.8l-16 9.2-14.7-8.4V679l11.6-6.7zm35.5 0 15.3 8.9v16.8l-16 9.2-14.6-8.4V679l11-6.4zm70.8 0 15.3 8.9v16.8l-16 9.2-14.4-8.3v-17.9l11-6.3zm35.5 0 15.3 8.9v16.8l-16 9.2-14.6-8.4V679l11.5-6.7zm35.5 0 15.3 8.9v16.8l-15.9 9.2-14.7-8.4V679l11.1-6.4zm35.6 0 7.2 4.2 8 4.7v16.8l-15.9 9.2-14.7-8.4V679l11.6-6.7zm35.5 0 1.2.7 14.1 8.2v16.8l-16 9.2-14.6-8.4V679l9.5-5.6zm35.5 0 15.3 8.9v16.8l-16 9.2-14.6-8.4V679l9.6-5.6zm35.5 0 1.2.7 14.2 8.2v16.8l-16 9.2-14.7-8.4V679l9.2-5.3zm35.6 0 15.3 8.9v16.8l-16 9.2-14.7-8.4V679l9.6-5.6zm35.5 0 1.2.7 14.1 8.2v16.8l-16 9.2-14.6-8.4V679l9.2-5.4zm35.5 0 15.3 8.9v16.8l-16 9.2-14.6-8.4V679l9.6-5.6zm35.5 0 1.2.7 14.2 8.2v16.8l-16 9.2-14.7-8.4V679l9.6-5.6zm35.6 0 15.3 8.9v16.8l-16 9.2-14.6-8.4V679l9.5-5.6zm35.5 0 1.2.7 14.1 8.2v16.8l-16 9.2-14.6-8.4V679l9.1-5.3zm35.5 0 15.3 8.9v16.8l-16 9.2-14.6-8.4V679l9.6-5.6zm35.5 0 1.2.7 14.2 8.2v16.8l-16 9.2-14.7-8.4V679l9.2-5.3zm-532.7 0 15.2 8.9v16.8l-15.9 9.2-14.5-8.4V679l11.5-6.7zm-53.2 30.8 14.7 8.5V727l-2.2 1.2-13.1 7.6-15.3-8.8v-17zm35.5 0 14.5 8.3v17.9l-2 1.1-13 7.6-15.4-8.9v-16.8Zm70.8 0 14.7 8.5v17.5l-2.1 1.3-13.2 7.6-15.3-8.9v-16.8Zm35.6 0 14.7 8.5V727l-2.2 1.2-13.2 7.6-15.3-8.8v-17zm35.5 0 14.7 8.5v17.5l-2.2 1.3-13.1 7.6-15.4-8.9v-16.8Zm35.5 0 14.7 8.5V727l-3.3 1.8-12 7-15.3-8.8v-17zm142.1 0 14.7 8.5V727l-3.2 1.8-12.1 7-15.3-8.8v-17zm-106.6 0 14.7 8.5V727l-3.2 1.8-12 7-15.4-8.9v-16.8Zm35.6 0 14.7 8.5V727l-3.3 1.8-12 7-15.4-8.8v-17zm35.5 0 14.7 8.5V727l-3.2 1.8-12.1 7-15.4-8.9v-16.8Zm71 0 14.7 8.5V727l-3.2 1.8-12 7-15.4-8.9v-16.8Zm35.6 0 14.7 8.5V727l-3.2 1.8-12.2 7-15.3-8.8v-17zm35.5 0 14.7 8.5V727l-3.2 1.8-12.1 7-15.3-8.9v-16.8Zm35.5 0 14.7 8.5V727l-3.2 1.8-12.1 7-15.3-8.8v-17zm35.6 0 14.6 8.5V727l-3.2 1.8-12 7-15.4-8.9v-16.8Zm35.5 0 14.7 8.5V727l-3.8 2.2-11.5 6.6-15.4-8.8v-17zm-497.3 0 14.6 8.5v17.5l-2.2 1.3-13 7.5-15.2-8.8v-16.8zm-53.7 30.3 15.3 8.8v17.7l-15.4 8.8-15.3-8.8V740l11.1-6.4zm70.7 0 15.4 8.8v17.7l-15.4 8.8-15-8.7v-18l11-6.2zm35.6 0 15.3 8.8v17.7l-15.3 8.8-15.3-8.8V740l11.5-6.6zm35.5 0 15.3 8.8v17.7l-15.3 8.8-15.3-8.8V740l11-6.4zm35.5 0 7.3 4.2 8 4.6v17.7l-15.3 8.8-15.3-8.8V740l11.6-6.6zm35.6 0 1.1.7 14.2 8.1v17.7l-15.3 8.8-15.4-8.8V740l9.6-5.5zm35.5 0 15.3 8.8v17.7l-15.3 8.8-15.3-8.8V740l9.5-5.5zm35.5 0 1.2.7 14.1 8.1v17.7l-15.3 8.8-15.3-8.8V740l9.1-5.3zm35.5 0 15.3 8.8v17.7l-15.3 8.8-15.3-8.8V740l9.6-5.5zm35.6 0 1.1.7 14.2 8.1v17.7l-15.3 8.8-15.4-8.8V740l9.3-5.3zm35.5 0 15.3 8.8v17.7l-15.3 8.8-15.3-8.8V740l9.6-5.5zm35.5 0 1.2.7 14.1 8.1v17.7l-15.3 8.8-15.3-8.8V740l9.6-5.5zm35.5 0 15.4 8.8v17.7l-15.4 8.8-15.3-8.8V740l9.6-5.5zm35.6 0 1.1.7 14.2 8.1v17.7l-15.3 8.8-15.4-8.8V740l9.2-5.3zm35.5 0 15.3 8.8v17.7l-15.3 8.8-15.3-8.8V740l9.6-5.5zm-497.3 0 15.2 8.8v17.7l-15.2 8.7-15.1-8.7V740l11.5-6.7zm88.7 30.7 15.4 8.9v17.6l-2.2 1.3-13.2 7.6-15.3-8.9v-17.6zm-106.3 0 15 8.7v18l-1.8 1-13.2 7.7-15.3-8.9v-17.6zm70.8 0 15.3 8.9v17.6l-2.1 1.3-13.2 7.6-15.3-8.9v-17.6zm71 0 15.4 8.9v17.6l-2.2 1.3-13.1 7.6-15.4-8.9v-17.6zm35.6 0 15.3 8.9v17.6l-3.3 2-12 6.9-15.3-8.9v-17.6zm35.5 0 15.3 8.9v17.6l-3.2 1.9-12 7-15.4-8.9v-17.6zm35.5 0 15.4 8.9v17.6l-3.3 1.9-12 7-15.4-8.9v-17.6zm35.6 0 15.3 8.9v17.6l-3.2 1.9-12.1 7-15.4-8.9v-17.6zm35.5 0 15.3 8.9v17.6l-3.2 1.9-12.1 7-15.3-8.9v-17.6Zm35.5 0 15.3 8.9v17.6l-3.2 1.9-12 7-15.4-8.9v-17.6zm35.5 0 15.4 8.9v17.6l-3.2 1.9-12.2 7-15.3-8.9v-17.6zm35.6 0 15.3 8.9v17.6l-3.2 1.9-12.1 7-15.3-8.9v-17.6zm35.5 0 15.3 8.9v17.6l-3.2 1.9-12.1 7-15.3-8.9v-17.6zm-426.2.1 15.2 8.8v17.6l-2.2 1.3-13 7.5-15.2-8.8v-17.6Zm17.6 30.7 15.4 8.8v17.7l-15.3 8.8-15.1-8.7v-18l11-6.2zm35.6 0 15.3 8.8v17.7l-15.3 8.8-15.3-8.8v-17.7l11.5-6.7zm35.5 0 15.3 8.8v17.7l-15.3 8.8-15.3-8.8v-17.7l11-6.4zm35.5 0 7.3 4.1 8 4.7v17.7l-15.2 8.8-15.4-8.8v-17.7l11.6-6.7zm35.6 0 1.1.6 14.2 8.2v17.7l-15.3 8.8-15.4-8.8v-17.7l9.6-5.5zm35.5 0 15.3 8.8v17.7l-15.3 8.8-15.3-8.8v-17.7l9.5-5.5zm35.5 0 1.2.6 14.1 8.2v17.7l-15.3 8.8-15.3-8.8v-17.7l9.1-5.3zm35.5 0 15.3 8.8v17.7l-15.2 8.8-15.4-8.8v-17.7l9.6-5.5zm35.6 0 1.1.6 14.2 8.2v17.7l-15.3 8.8-15.4-8.8v-17.7l9.3-5.3zm35.5 0 15.3 8.8v17.7l-15.3 8.8-15.3-8.8v-17.7l9.6-5.5zm35.5 0 1.2.6 14.1 8.2v17.7l-15.3 8.8-15.3-8.8v-17.7l9.6-5.5zm-265.7 31.1 15.3 8.9v17.7l-2.1 1.2-13.2 7.6-15.3-8.8v-17.7zm35.5 0 15.4 8.9v17.7l-3.3 1.8-12 7-15.4-8.8v-17.7zm35.5 0 15.4 8.9v17.7l-3.2 1.8-12.1 7-15.4-8.8v-17.7zm35.6 0 15.3 8.9v17.7l-3.2 1.8-12.1 7-15.3-8.8v-17.7zm35.5 0 15.3 8.9v17.7l-3.2 1.8-12 7-15.4-8.8v-17.7zm35.5 0 15.4 8.9v17.7l-3.3 1.8-12 7-15.4-8.8v-17.7zm35.5 0 15.4 8.9v17.7l-3.2 1.8-12.1 7-15.4-8.8v-17.7z" clip-path="url(#a)" transform="translate(4171.7 55.2)"/>
  <path id="icon-blue-2" fill="#06f" d="M284 306.2a195.8 195.8 0 0 0 0 277.1 195.7 195.7 0 0 0 166.6 55.5v21.9a61.3 61.3 0 0 0-33.8 104.7c12.2 11.3 27.7 14.2 33.8 15.5 12.9 2.7 23.2 2 121.7 2 20.9 0 42 .4 62.6-3.5a190.5 190.5 0 0 0 69.2-25.5 155.7 155.7 0 0 0 63-68.2h63.5a46.9 46.9 0 0 0 33.2-80.2c-4.2-4.1-12.7-13.8-33.2-13.8h-48.8v-4h48.8c12 0 24-4.5 33.2-13.7a46.9 46.9 0 0 0-33.2-80.2h-66.1c-11.8-25.2-39.6-52.5-66-68a207.8 207.8 0 0 0-80-27.4c-28.3-4-79.4-2.9-79.4-2.9a61.9 61.9 0 0 0 31.5-53c0-57.3-78.4-93.8-149.4-93.8A202 202 0 0 0 284 306.2zm193.7 89.3s-44.8-4.6-65.4 24.5a66.4 66.4 0 0 0-1.3 75 53.7 53.7 0 0 0 26.3 20 69.8 69.8 0 0 1-65.7-19.3 72 72 0 0 1 49.6-123 69.6 69.6 0 0 1 37.7 10c9 5.4 14.6 11.2 18.8 12.8zm94.6 125.8s13.6.4 28.8 3.4a86 86 0 0 1 26.4 9A42 42 0 0 1 646 554a103.7 103.7 0 0 1 7 51.9 66.8 66.8 0 0 1-7.9 24.4 58.6 58.6 0 0 1-18.5 15.1 118 118 0 0 1-27.5 9.8c-14.4 3-27 3.6-27 3.6V590z" transform="rotate(-15 537.5 560.3)"/>
  <path id="icon-bends" fill="none" stroke="#0049b2" stroke-linecap="round" stroke-linejoin="round" d="m536.5 499.5 24.5 14.1zm230.8 108.4 24.5 14.1z"/>
  <path id="icon-blue-1" fill="#09f" d="M264 286.2a195.8 195.8 0 0 0 0 277.1 195.7 195.7 0 0 0 166.6 55.5v21.9a61.3 61.3 0 0 0-33.8 104.7c12.2 11.3 27.7 14.2 33.8 15.5 12.9 2.7 23.2 2 121.7 2 20.9 0 42 .4 62.6-3.5a190.5 190.5 0 0 0 69.2-25.5 155.7 155.7 0 0 0 63-68.2h63.5a46.9 46.9 0 0 0 33.2-80.2c-4.2-4.1-12.7-13.8-33.2-13.8h-48.8v-4h48.8c12 0 24-4.5 33.2-13.7a46.9 46.9 0 0 0-33.2-80.2h-66.1c-11.8-25.2-39.6-52.5-66-68a207.8 207.8 0 0 0-80-27.4c-28.3-4-79.4-2.9-79.4-2.9a61.9 61.9 0 0 0 31.5-53c0-57.3-78.4-93.8-149.4-93.8A202 202 0 0 0 264 286.2zm193.7 89.3s-44.8-4.6-65.4 24.5a66.4 66.4 0 0 0-1.3 75 53.7 53.7 0 0 0 26.3 20 69.8 69.8 0 0 1-65.7-19.3 72 72 0 0 1 49.6-123 69.6 69.6 0 0 1 37.7 10c9 5.4 14.6 11.2 18.8 12.8zm94.6 125.8s13.6.4 28.8 3.4a86 86 0 0 1 26.4 9A42 42 0 0 1 626 534a103.7 103.7 0 0 1 7 51.9 66.8 66.8 0 0 1-7.9 24.4 58.6 58.6 0 0 1-18.5 15.1 118 118 0 0 1-27.5 9.8c-14.4 3-27 3.6-27 3.6V570z" transform="rotate(-15 537.5 560.3)"/>
  <path id="icon-black" fill="#1a1a1a" d="M215 420.7a183 183 0 0 0 183.6 183.5c13.4 0 27.3-1.5 40.5-4.3v48a51.7 51.7 0 0 0-38.5 15c-19.7 21.1-17.5 51.3-2.3 66.5a58.2 58.2 0 0 0 39.2 16.8h90.7c.5 0 52.4 1.8 80.5-3.1a177.8 177.8 0 0 0 65-24 142.6 142.6 0 0 0 61-69.9h71.9a34.5 34.5 0 0 0 0-69h-62c.6-10.4.6-20.3.4-29h61.6c9.4 0 18.1-3.8 24.4-10 14-14 13.6-34.8 2.6-46a38 38 0 0 0-27-13h-74a159.1 159.1 0 0 0-63.1-68.6 193.9 193.9 0 0 0-73.9-26.4c-23.5-3.4-47-3.2-59.6-3.2l-96.7-.4c-11 0-30.5 5.3-40.9 19.8a54.5 54.5 0 0 0-1.2 60.3c8.7 13.4 24.6 19.2 39.9 20.2v11.7a83.2 83.2 0 0 1-98.3-15.1 84 84 0 0 1-24.7-59.8 84 84 0 0 1 24.7-59.7 84 84 0 0 1 112.7-6 49.6 49.6 0 0 0 82.6-36.5c.4-14-5.2-25.5-19.9-40.3-27.2-27.5-74.5-41-120-41-45.6 0-92.2 20.5-125.4 53.8a183.1 183.1 0 0 0-53.7 129.7zm320.8 63.7c8.1.1 16.9.4 19.4.8 19.5 2.7 38.9 5.4 54.6 13.7a52.4 52.4 0 0 1 17.5 15.2 87.1 87.1 0 0 1 14.2 39.6c1.2 10.4 1.3 20.6 0 30a71 71 0 0 1-13.1 33.9c-6 6-12.5 11-19.8 15a135.5 135.5 0 0 1-47.3 13.7 326.5 326.5 0 0 1-25.5 1.7z" transform="rotate(-15 537.5 560.3)"/>
  <path id="icon-orange" fill="#f60" d="M276.1 298.3a175.5 175.5 0 0 0-51.5 124.4 175.5 175.5 0 0 0 176 176c16 0 32.8-2.2 48-6.2v65.2c-9.5-.8-28.4-.6-40.5 12.3-16.2 17.3-16.4 43.3.3 58.7 13.5 10.1 22.5 12 40.2 12h81.7s52.8 1.6 79.1-3a168.8 168.8 0 0 0 62.4-23c28.5-17 51.1-43.6 59.6-71h77.2a27 27 0 0 0 19-46c-4-4-9.1-8-19-8h-69.7c1-15.4 1-33.2.4-44h69.3a27 27 0 0 0 19-7.9c11.3-11.2 10-27.8 2.6-35.4-7.4-7.6-14.2-10.7-21.6-10.7h-78.8a151 151 0 0 0-62.2-69.6 185.5 185.5 0 0 0-71-25.5c-22.8-3.3-45.9-3.1-71.3-3.1l-81.6-.3c-8-.3-27 2.6-37.2 16.6a47.1 47.1 0 0 0-1 51.8c8 12.4 25.5 17.5 41 17v23.7a91.3 91.3 0 0 1-111-14.5 91.6 91.6 0 0 1 0-130.1 91.6 91.6 0 0 1 122.8-6.5c8 6.5 21 13 33 10.6 17.4-3.4 36.2-15.3 37.3-41.6.4-10.5-3.8-20.7-17.7-34.8-25-25.1-70.8-38.7-112.8-38.7-45.3 0-90.2 19.7-122 51.6zm339.2 196a60 60 0 0 1 20.2 17.5 95.3 95.3 0 0 1 15.4 43 131 131 0 0 1 .1 31.9c-2 13.9-7 28.8-15.1 38A90.4 90.4 0 0 1 614 641a151.4 151.4 0 0 1-56 15.3c-8.9.8-18.2 1.2-27.8 1.3v-179c9 .1 23 .3 28 1 19.4 2.8 39.6 5.4 57 14.5z" transform="rotate(-15 537.5 560.3)"/>
  <path id="icon-white" fill="#eaeaea" d="M224 378.8a170.5 170.5 0 0 0-17.1 129.7c12.2 45.6 41.8 82 79.7 103.9a170.5 170.5 0 0 0 129.7 17c17.2-4.5 35-12.1 49.2-21.1l20 74.6s-28 2.5-37.7 20.6c-10 18.8-4.3 40.6 13.3 49.9 16.1 8.5 43.2-.5 43.2-.5l69.2-18.6s56.8-13.8 79.7-24.4c23-10.7 37.2-21.2 52.9-37.3 23.3-24 38.2-56.6 38-84.4l78-20.9a22 22 0 0 0 13.3-10.2 22.1 22.1 0 0 0-8-30c-4.9-2.9-8-4.6-16.7-2.3l-72.5 19.4c-3-18-10.3-44-13.5-52.2l72-19.3a22 22 0 0 0 13.4-10.3 21.5 21.5 0 0 0-8-30 22 22 0 0 0-16.8-2.2l-79.2 21.2c-19.1-26.3-48.4-43.9-79.9-53-26-7-48.6-7.8-71-5.1-22.3 2.6-44.4 8.7-69 15.3l-71.1 19c-14.8 3.4-30.8 11-36 24.4a43.1 43.1 0 0 0 11 44.7c11.3 9.7 27.1 8.3 44.4 3.6l8.2 30.5a96.5 96.5 0 0 1-119.1 17.5A96.7 96.7 0 0 1 288 415.8a96.7 96.7 0 0 1 123.3-40.2c8.3 3.8 19 5 26.8 3 20.5-7.2 31-26.2 26.1-45.3-1.4-5.7-3-13-23.8-26s-67-20.4-112.7-8.2A170.5 170.5 0 0 0 224 378.8zm281.7 102.5a428 428 0 0 1 31.9-7.6c20.9-3.8 42.3-5.7 61.7-.8a69.3 69.3 0 0 1 26 12.8 100.7 100.7 0 0 1 27.4 39.4c4.3 10.6 7.3 21.5 8.7 32 1.8 14.7 1 31.2-5.3 43.6a95.5 95.5 0 0 1-17.8 23 156 156 0 0 1-51.8 30.1 355 355 0 0 1-31.9 10z"/>
</svg>