<?xml version="1.0" standalone="no"?>
<!DOCTYPE svg PUBLIC "-//W3C//DTD SVG 20010904//EN"
 "http://www.w3.org/TR/2001/REC-SVG-20010904/DTD/svg10.dtd">
<svg version="1.0" xmlns="http://www.w3.org/2000/svg"
 width="700.000000pt" height="700.000000pt" viewBox="0 0 700.000000 700.000000"
 preserveAspectRatio="xMidYMid meet">
<metadata>
Created by potrace 1.14, written by Peter Selinger 2001-2017
</metadata>
<g transform="translate(0.000000,700.000000) scale(0.100000,-0.100000)"
fill="#000000" stroke="none">
<path d="M3338 6645 c-2 -2 -44 -6 -94 -9 -49 -4 -101 -8 -115 -11 -13 -2 -46
-6 -73 -10 -93 -12 -212 -36 -363 -75 -503 -130 -992 -405 -1368 -769 -208
-202 -338 -362 -511 -631 -89 -139 -189 -349 -277 -580 -28 -74 -94 -298 -102
-349 -3 -19 -8 -37 -10 -41 -4 -6 -30 -153 -40 -222 -3 -21 -7 -54 -10 -73
-26 -185 -26 -542 1 -760 5 -46 34 -216 49 -290 54 -270 196 -638 348 -900 42
-73 195 -306 207 -315 3 -3 13 -14 21 -26 16 -24 74 -94 138 -168 57 -67 230
-238 309 -306 98 -85 280 -218 394 -289 126 -79 353 -195 468 -239 47 -18 94
-37 105 -42 88 -39 382 -118 545 -145 136 -23 161 -26 314 -41 56 -5 411 -4
461 1 22 3 68 7 103 10 71 6 105 11 217 31 44 8 94 17 110 20 85 16 375 100
440 129 17 8 62 26 100 41 135 52 494 241 503 266 2 4 8 8 13 8 5 0 42 23 81
51 339 240 607 516 832 857 47 72 86 135 86 141 0 6 3 11 8 11 4 0 12 10 18
23 6 12 36 72 66 132 70 138 91 185 133 296 36 93 101 296 109 339 2 14 13 63
24 110 33 139 46 230 68 455 5 55 5 389 -1 450 -2 28 -7 75 -10 105 -4 30 -8
75 -11 100 -16 146 -95 463 -159 640 -229 630 -658 1176 -1216 1548 -300 200
-654 357 -989 438 -64 15 -213 45 -250 50 -25 3 -52 7 -60 9 -8 2 -40 7 -70
10 -30 3 -77 8 -105 11 -52 5 -432 13 -437 9z m407 -260 c33 -3 74 -8 90 -10
17 -3 48 -7 70 -9 226 -28 485 -99 725 -199 419 -175 773 -439 1101 -817 40
-47 136 -175 175 -235 21 -33 41 -62 44 -65 20 -20 158 -279 204 -385 71 -162
155 -418 180 -549 34 -181 43 -235 53 -336 10 -97 10 -485 0 -575 -28 -244
-74 -452 -152 -674 -38 -109 -52 -142 -117 -281 -272 -581 -784 -1094 -1361
-1365 -334 -156 -577 -225 -947 -270 -99 -12 -543 -13 -615 -1 -16 3 -52 8
-80 12 -27 3 -59 8 -70 10 -10 2 -37 6 -60 10 -22 3 -69 12 -105 21 -36 8 -72
16 -81 18 -45 9 -257 75 -304 95 -11 4 -36 14 -55 21 -146 52 -363 167 -540
284 -212 142 -382 289 -570 494 -232 255 -454 638 -573 991 -39 115 -103 368
-111 440 -1 8 -6 38 -10 65 -13 88 -15 108 -23 210 -12 171 -6 438 13 565 73
495 210 867 461 1245 404 611 1028 1048 1741 1220 53 13 113 26 132 29 19 3
44 7 55 10 11 2 45 7 75 11 30 4 66 10 80 11 14 2 75 7 135 10 61 4 111 7 112
9 6 4 271 -4 328 -10z"/>
<path d="M3448 6295 c-2 -1 -59 -6 -128 -9 -69 -4 -132 -9 -140 -11 -8 -2 -37
-6 -65 -10 -292 -35 -650 -153 -937 -307 -780 -419 -1312 -1181 -1442 -2066
-20 -137 -23 -190 -21 -417 1 -143 5 -273 8 -290 3 -16 11 -64 17 -105 7 -41
13 -84 15 -95 42 -266 176 -626 333 -895 162 -277 400 -557 633 -745 41 -33
80 -66 87 -73 22 -20 263 -177 323 -210 185 -102 430 -207 549 -237 8 -3 56
-15 106 -29 49 -14 103 -27 120 -30 16 -3 40 -8 54 -11 34 -7 127 -23 170 -29
178 -27 545 -27 740 -1 138 19 446 89 478 109 4 3 19 7 33 10 41 7 294 112
391 162 153 79 273 155 438 278 151 113 337 296 480 472 139 171 301 445 386
649 97 237 154 444 199 725 26 168 26 539 -1 735 -10 77 -45 260 -55 292 -6
17 -12 44 -15 59 -9 52 -76 246 -120 352 -354 846 -1096 1467 -1979 1657 -109
23 -137 28 -225 41 -25 3 -56 8 -70 10 -14 3 -92 7 -175 10 -82 3 -158 7 -167
8 -9 2 -18 3 -20 1z m-752 -1398 c12 -3 39 -8 60 -11 197 -32 239 -108 174
-314 -36 -114 -86 -153 -190 -146 -205 13 -319 13 -380 -1 -212 -49 -401 -230
-464 -445 -39 -131 -27 -309 29 -435 120 -272 419 -431 703 -376 78 16 139 38
207 76 105 58 104 52 54 205 -34 105 -46 130 -58 125 -41 -16 -150 -37 -188
-36 -53 0 -99 23 -117 59 -15 30 -88 239 -90 260 -1 9 170 67 539 183 709 222
740 230 924 230 285 1 517 -94 716 -291 l61 -59 259 81 c143 44 275 80 293 80
96 -3 164 -129 115 -212 -23 -40 -67 -61 -238 -115 -339 -106 -376 -119 -373
-129 25 -95 105 -316 113 -316 13 0 26 4 337 104 212 69 244 73 303 45 37 -18
73 -89 69 -137 -4 -49 -21 -79 -61 -103 -27 -17 -347 -121 -495 -161 -21 -6
-39 -14 -39 -19 -1 -5 -2 -12 -3 -16 -1 -5 -6 -35 -10 -67 -4 -32 -19 -92 -32
-133 -84 -257 -261 -457 -519 -585 -79 -40 -185 -77 -490 -173 -214 -68 -628
-200 -743 -237 -36 -11 -68 -16 -72 -12 -14 14 -89 261 -85 281 2 10 4 26 4
35 2 46 85 105 199 142 28 10 52 20 52 23 0 3 -43 136 -95 297 -52 160 -95
297 -95 304 0 6 -25 -4 -56 -24 -186 -119 -372 -174 -594 -174 -105 0 -152 5
-259 32 -480 117 -821 538 -836 1033 -17 576 399 1059 975 1130 30 4 57 8 59
10 5 6 313 -2 337 -8z"/>
<path d="M3725 3813 c-107 -14 -327 -72 -347 -91 -3 -4 0 -25 7 -47 7 -22 42
-130 78 -240 177 -545 310 -951 313 -956 5 -8 234 63 315 97 193 80 291 184
341 361 53 189 6 426 -128 640 -63 102 -158 178 -269 218 -48 17 -234 28 -310
18z"/>
</g>
</svg>
